/* XPM */
static char *_a1f8a792e424d2ff6cc95396b728212cznu4D5s7zXNgB6r[] = {
/* columns rows colors chars-per-pixel */
"64 64 72 1 ",
"  c None",
". c #060000",
"X c #080000",
"o c #0F0808",
"O c #110603",
"+ c #140904",
"@ c #1A0E06",
"# c #120B0B",
"$ c #1E1007",
"% c #171010",
"& c #191212",
"* c #201207",
"= c #241509",
"- c #2C1B0B",
"; c #311F0D",
": c #241D1D",
"> c #36220E",
", c #3A260F",
"< c #3B2610",
"1 c #3F2911",
"2 c #272121",
"3 c #2A2424",
"4 c #322C2C",
"5 c #373131",
"6 c #3F3B3B",
"7 c #442E13",
"8 c #4C3315",
"9 c #513716",
"0 c #533917",
"q c #553A18",
"w c #593D19",
"e c #403C3C",
"r c #5D401A",
"t c #63451C",
"y c #6B4B1F",
"u c #6F4E20",
"i c #704E20",
"p c #755222",
"a c #795523",
"s c #7E5925",
"d c #4E4A4A",
"f c #5A5757",
"g c #5C5858",
"h c #686666",
"j c #6C6A6A",
"k c #706E6E",
"l c #747272",
"z c #7D7C7C",
"x c #835C26",
"c c #876027",
"v c #886027",
"b c #876028",
"n c #8C6328",
"m c #90672A",
"M c #94692B",
"N c #9A6E2D",
"B c #9E712E",
"V c #A1732F",
"C c #A47631",
"Z c #A77832",
"A c #AB7A33",
"S c #807F7F",
"D c #B68336",
"F c #B88537",
"G c #BB8738",
"H c #BE8939",
"J c #C58F3C",
"K c #C7903C",
"L c #CA923D",
"P c #828181",
"I c #8B8B8B",
"U c #939393",
/* pixels */
"                                                                ",
"                                                                ",
"                                                                ",
"                                                                ",
"                                                                ",
"                                                                ",
"                                                                ",
"                                                                ",
"                                                                ",
"                                                                ",
"                                                                ",
"                                                                ",
"                       XXXXXXXXXXXXX.XX.XX                      ",
"                       .XXXXX.X.XXXXXXXXXX                      ",
"              XXXXXXXXXXXXXXXXXXXXXXXXXXXXXXXXXXXXX             ",
"             XXXXXXXXXXX..XXX.XXXXX....XXXXXXXXXXXXX            ",
"             XXXX.XXXXX@@@$$$OX.#*$$$$$@@@o.XX..XXXX            ",
"          XXXXXXXXXXX.=sbnCZV>..tAAAAAZnbx=.X...XXXXXXX         ",
"          XXXX........-NVCKLH1..aLLLJLJZBB-.........XXX         ",
"          .XX>77899909tNBNsaa-..7xsxDDDAAAu9qqqq877>XXX         ",
"       XX.XXXaVBDKKKKKHVBm$.XXX.XXX=MBCHLJKKKKKLDBVa+XXXXX      ",
"       XXX.XXaBBDJKJKKGVBm@.XXX.XX.=NBCHKKKJJJKKFBVaO.XXXX      ",
"    XXXX.+0yyVDDHKKJKKC817rttasssssnDFFJJKJJJKJKHFFCytr+XXXXX   ",
"    XXXXX$bCBHKKKJJKKKMo.+mCCHLLLLLLLLKJJJJKJKJJKKKHCVM$XXXXX   ",
"    XXX..@cBBHKJJJJKJLB-&-abcBCCAZCZZZAHKJJJJKKJKJKGVBn$XXX.X   ",
"    .XXXX@cBBHKKJKJJJLDMnx=@@$$$$$$$$%>AKJJKJJJJJJKHVBM@.XXXX   ",
"    XXXXX@bVBHKKJJKJJJHVVn@.X.........@ZKJKKKKJJJKKHVVM$.XXXX   ",
"    XX.XXO8wwNDDHKJJJJHDDCr88$XX;989rtyDKKKKJJJKHDDBrw8oXX.XX   ",
"    XXXXXXX.XpBBDKKKKKJJKHCVN;..rCVZKKKKKKKKKKKKFBBao..XXX.XX   ",
"    XX.XXXoO+uMmZDDDDDFJKHCBN<OOtVBCHKJJHJGDDFFDZMMp@OoX.XXXX   ",
"    XXXXXO0tr>==----;-8VZCBBBbssmBBVCCCZCC8------==>rtw+XXXXX   ",
"    X..X.+yaa=........=MVVVVBVCCCVVVVVBVVB-........$pau+.XX.X   ",
"    553XX+7q9>-->,,>1,7yyyyyyyyyyuyyyyyyuy7,,,,,>-->808OX.355   ",
"    UUloXXXXXrapnBBBBBaOXXXXXXXX.XXXXXXX.XaBBBBBmparOXXX.OjUU   ",
"    UUl#XoX.XrppbBBNNNp+XXoXXoXoXoXXOXoX.OpBBNNBnpprOXXXoojUU   ",
"       hjf%..$--;>>>>>10wwyiiyuuuuiiiiyw001>>>>>;--$XX#fhhl     ",
"       UUP&XXX........$pasNVCVVVVVVVVVBxpa=.....X.XX..%SUU      ",
"       UUS3&&XXXXXXXX.$tyyvnnvnnnnnvnnvyyy$.XXXXXXXo&&:SUU      ",
"          SSl3XXX.XXXXo++@$*$$$$$$$$$$$@@+X.XXXXX..&lSS         ",
"          UUU3.X......XXXXXX.XX.XXXXXXXXX.X....X...2IUU         ",
"          UUIdee666eee4oXXXXXXXXXXXXXXXXXX466eee6e6dIUU         ",
"             UUUUUUUUUk#XXXX..XXXX..XXXX.XjUUUUUUUUU            ",
"             UUUUUUUUUk%#oo#ooooooooooooookUUUUUUUUU            ",
"                       kkkjkjkkkkkkjjljlkl                      ",
"                       UUUUUUUUUUUUUUUUUUU                      ",
"                       UUUUUUUUUUUUUUUUUUU                      ",
"                                                                ",
"                                                                ",
"                                                                ",
"                                                                ",
"                                                                ",
"                                                                ",
"                                                                ",
"                                                                ",
"                                                                ",
"                                                                ",
"                                                                ",
"                                                                ",
"                                                                ",
"                                                                ",
"                                                                ",
"                                                                ",
"                                                                ",
"                                                                "
};
