/* XPM */
static char *door1685469215[] = {
/* columns rows colors chars-per-pixel */
"64 64 212 2 ",
"   c None",
".  c #1D1513",
"X  c #211714",
"o  c #241915",
"O  c #261B19",
"+  c #2A1E1A",
"@  c #2A1D14",
"#  c #2E2015",
"$  c #2E211D",
"%  c #342415",
"&  c #3A2715",
"*  c #3E2914",
"=  c #33241C",
"-  c #39271B",
";  c #37281B",
":  c #3B291B",
">  c #362620",
",  c #392721",
"<  c #3D2A23",
"1  c #442C0D",
"2  c #492E0B",
"3  c #4D3007",
"4  c #4C310D",
"5  c #543402",
"6  c #583602",
"7  c #5E3A05",
"8  c #53350D",
"9  c #5B3A0B",
"0  c #58370C",
"q  c #432C13",
"w  c #422E1A",
"e  c #482F11",
"r  c #463116",
"t  c #4C3212",
"y  c #46311A",
"u  c #4A3419",
"i  c #4F391B",
"p  c #513714",
"a  c #553A14",
"s  c #5A3D13",
"d  c #553D1B",
"f  c #523918",
"g  c #643D04",
"h  c #613D0A",
"j  c #422D25",
"k  c #463028",
"l  c #4C342B",
"z  c #4C3524",
"x  c #52372D",
"c  c #54392F",
"v  c #563A30",
"b  c #5A3D32",
"n  c #5F4116",
"m  c #5C421B",
"M  c #6B4303",
"N  c #65410B",
"B  c #69430A",
"V  c #6A4306",
"C  c #704704",
"Z  c #754A04",
"A  c #7A4E04",
"S  c #724A0B",
"D  c #734908",
"F  c #7B510D",
"G  c #7E5105",
"H  c #644414",
"J  c #684613",
"K  c #6D4C15",
"L  c #694B1A",
"P  c #644818",
"I  c #734E13",
"U  c #6E5018",
"Y  c #755416",
"T  c #7A5412",
"R  c #7E5916",
"E  c #7A5819",
"W  c #5A4433",
"Q  c #574226",
"!  c #624236",
"~  c #654438",
"^  c #694639",
"/  c #6D493B",
"(  c #604D36",
")  c #744D3E",
"_  c #6C573A",
"`  c #72572B",
"'  c #774F40",
"]  c #784F41",
"[  c #795041",
"{  c #825305",
"}  c #8D5C06",
"|  c #82550B",
" . c #85590E",
".. c #8B5C0D",
"X. c #875805",
"o. c #915E06",
"O. c #825C15",
"+. c #8C5F10",
"@. c #815D19",
"#. c #966106",
"$. c #996406",
"%. c #93620B",
"&. c #9A660A",
"*. c #9E6A0B",
"=. c #9F6807",
"-. c #8B6113",
";. c #886217",
":. c #966B17",
">. c #9D7115",
",. c #A36C07",
"<. c #A46D09",
"1. c #A96F08",
"2. c #AC7209",
"3. c #AC750B",
"4. c #B17709",
"5. c #B37C0D",
"6. c #BA7E0A",
"7. c #B07507",
"8. c #AB7B15",
"9. c #A57517",
"0. c #B27D16",
"q. c #886322",
"w. c #805444",
"e. c #865847",
"r. c #93614E",
"t. c #8C764E",
"y. c #A96F5A",
"u. c #BE830B",
"i. c #B38215",
"p. c #B78319",
"a. c #B68726",
"s. c #B98E3B",
"d. c #C2860C",
"f. c #C5890C",
"g. c #CA8C0C",
"h. c #CD910E",
"j. c #D3950D",
"k. c #DB9B0D",
"l. c #D3990F",
"z. c #C48D14",
"x. c #C48A18",
"c. c #CD9315",
"v. c #D29A13",
"b. c #D99D12",
"n. c #D09615",
"m. c #DDA117",
"M. c #DFA00F",
"N. c #E2A20E",
"B. c #EDAC0E",
"V. c #E8A70F",
"C. c #F3B00E",
"Z. c #E5A611",
"A. c #ECAB11",
"S. c #E7A914",
"D. c #F0AF11",
"F. c #F5B412",
"G. c #F8B715",
"H. c #F8B91C",
"J. c #F5B61D",
"K. c #EEB019",
"L. c #C6922A",
"P. c #C19133",
"I. c #C28F2D",
"U. c #DCA938",
"Y. c #D7A32D",
"T. c #F3B622",
"R. c #F7BB28",
"E. c #EBB537",
"W. c #F9BF30",
"Q. c #F1BC3B",
"!. c #E8B02E",
"~. c #FAC23A",
"^. c #9B8357",
"/. c #BCA36C",
"(. c #B38D44",
"). c #DAAE51",
"_. c #D5A84B",
"`. c #E5B54C",
"'. c #EABF5B",
"]. c #E1AF42",
"[. c #C9AB69",
"{. c #DFB660",
"}. c #DDBF7B",
"|. c #E6BF68",
" X c #FAC543",
".X c #F8C64C",
"XX c #FBC84B",
"oX c #F7C856",
"OX c #F6CC65",
"+X c #FAD16D",
"@X c #F3CE78",
"#X c #FAD373",
"$X c #FAD57A",
"%X c #FCD87E",
"&X c #EAC571",
"*X c #CEB382",
"=X c #D9C69F",
"-X c #FBDB8C",
";X c #F6D588",
":X c #F3D692",
">X c #FBE09F",
",X c #F3DBA1",
"<X c #FCE3A8",
"1X c #FCE8B7",
"2X c #FDEECC",
"3X c #FBEBC4",
"4X c #FDF0CE",
"5X c #FEF4DB",
"6X c #FDF0D1",
"7X c #FEF9EB",
"8X c #FFFFFF",
"9X c #FFFCF4",
/* pixels */
"        + $ o                                         O +             + O                                         o $ $         ",
"      % Y _ W                                         w r             y :                                         W _ U %       ",
"    . i S.+X^.@                                     + H Y $   . +   $ I P $                                     O ^.+XZ.i .     ",
"    P a.oX1X=Xt.=                             > $ $ n R R P = t.t.# H O.T n $ $ >                             $ ^.=X1XoXa.P     ",
"  $ E T.$X5X3X[.<                           > = - = Y -.-.R z /./.i R ;.-.Y = - > =                           < [.3X5X$XT.E $   ",
"  O P d.T.%X|.:.>                           + L ;.= = L Y z /.3X,Xu.u Y J ; = ;.L $                           = :.{.%XT.f.J O   ",
". y J &.b.`.s.F f #                         + P q._ L L K ` :X7X<XS.E U ` _ L ;.P O                         # a F s.`.b.&.J r . ",
"= | T w <.4.I u *.u .                         X ( @XW.;.P R.5X8X<XG.K.U [ $XK.P X                         . u *.u I 4.<.w Y  .= ",
"= 9.5.I H H J +.h...p O = = $ = = > $ = = $ + + x _.K.i.>.R.5X5X%XF.F.>.a.`.v.d + + = + = = = $ + = = $ O p +.g.+.K H H I 5.>.= ",
"$ i.M.,.y - I x.T.d.K = $ = = = = = = = = = = = f 8.Z.n.z.T.5X<XoXF.G.z.c.Z.8.i = = = = = = = = = = = = = I d.T.x.I , w <.M.p.= ",
"= i.C.V.v.v.U.;X2XE.u.Y = 0 7 7 7 9 7 7 7 h 7 7 0 u -.:.0.T.-XoXH.F.F.i.:.-.i 9 h 7 h g 7 7 7 g h h 9 = I d.Q.2X;XU.v.b.V.C.i.= ",
"= i.H.W.~. X#X1X1XE.g...- D X.} } o.} o.} } } X.B ; @.>.i.m.|.!.Z.M.m.i.>.@.= B X.} } } } } } } } X.C - ..f.E.1X<X$X XW.W.R.i.$ ",
"$ i. X-X-X5X8X2XT.u.4...: $.k.C.C.B.C.F.D.F.F.h...& >.m.v.:.8.p.i.i.-.v.Z.>.- ..j.D.C.C.C.B.C.C.D.k.%.- ..7.u.T.4X9X5X-X-X Xi.= ",
"= i.R..XXX#X-XOXc.| J ` ^.*X:X-X-X-XOXXX XF.F.V.i.0 L E :.9._.Y.v.n.9.:.E L 0 5.!.OX-X-X-X-X-XoXXXE.d.T K H T h.OX-X#X.X XR.i.= ",
"= i.F.C.B.B.B.k.<.u = _ :X7X8X8X8X8X1X-X$XT.G.G.b.M : = d a.&XQ.K.M.i.d $ : M v.XX<X9X8X8X8X9X<X-XOXA.5.d = u <.b.B.B.C.F.F.i.= ",
"= +.k.C.d.Y d d u | (.}.-X>X>X3X8X8X9X7X6X$X#X XN.,.%.S a z W Q m m i a S &.,.Z.H..X>X<X5X8X8X7X7X1X#X&XY.5. .u d d Y d.B.l.-.= ",
"$ S 8.z.%.s i d m 1.].#X#X+X#X-X4X4X4X4X1X$X#X XV.u.4.o.B u r t y y t B o.7.u.A.F.R.+X#X<X6X2X6X6X<X#X+X~.k.2.m m u s %.z.8.S $ ",
"  $ = = ;  .g.F.F.C.G.G.G.G.G.G.J.J.H.H.H.G.J.G.F.F.6.2.1.<.1.1.1.1.<.<.1.u.A.F.F.F.F.G.G.H.H.H.H.H.G.H.G.F.C.C.D.g...; ; > $   ",
"  $ & t t %.d.j.j.j.j.j.j.j.j.j.j.j.j.j.j.j.j.j.j.g. .%.2.2.2.2.2.2.2.2.%.O.h.j.j.j.j.j.j.j.j.j.j.j.j.j.j.j.j.l.l.u.#.4 t & +   ",
"  $ e M M #.2.1.1.1.1.1.1.1.1.<.2.1.<.1.1.1.1.1.<.,.u Y 2.1.2.1.2.2.2.2.I t ,.1.1.1.1.1.1.1.1.1.1.1.1.1.1.1.1.2.1.1.$.M M e $   ",
"  = q 7 6 g M M M M M M M M a a M M M M M M M M g d i.O.9 g C g M V M a ;.i.a N C M M M g C g M a 9 M M M M M M M M g 7 6 q $   ",
"  + & 3 5 2 3 5 3 3 3 3 3 3 p p 3 3 3 3 3 3 3 3 1 < p.E = 3 3 3 3 3 3 % E p.- 1 3 3 3 3 3 3 5 3 p i 3 3 3 3 3 3 3 3 3 3 3 & $   ",
"    o = = = = = = = = = = = 8.8.# $ = = $ = = = > + - - = = = = = = = $ - , + = = = = = = = $ = 8.8.$ = # = = = = = = = = O     ",
"      O O $ % * * * q * * 1 @.R ; n w $ $ # $ $ w s - + @ + + + O O + + + w s : = + + = = w s = R @.* 1 * q * * 1 % $ O O       ",
"          + q 6 6 5 5 5 5 5 q + y *.a $ = X + + u ,.y O X X X X X X X X O u *.i $ + X $ $ a ,.w + * 6 5 5 5 5 5 6 1 +           ",
"          + e g g g g g 6 5 3 1 = i & * 1 # 1 q - f @ + + + + $ $ + $ + + @ p = * 1 $ 2 q - u - q 5 5 5 g g g g g e $           ",
"          = t M Z Z C M 6 5 5 2 $ $ $ * 2 = 2 q $ $ + + $ = > $ = = = = + @ + = 1 2 = 2 * $ $ $ 1 5 5 6 M Z Z Z C t $           ",
"          + t A ,.,.1.o.g 6 5 2 = $ $ $ = @ = $ # $ < j j j j > = j j j j < = + $ = # = $ @ $ $ 2 5 6 g o.,.<.<.1.J $           ",
"          O * N 1.I.L.6.{ 6 5 2 = = = - > = , > = = j j j j j > > j j j j j = = > > = > > - = $ 2 5 g { 6.g.d.7.$.s $           ",
"            X t 3.&XXXN.1.g 5 2 = < j j j j j j j j j j j j j > > j j j j j j j j j j j j j j = 2 5 g ,.N.G.Z.2.A t $           ",
"            + w | a.`.`.1.g 5 2 = < k x x l l l x l x l l x l j j l l x l x x l x l l x l k < = 2 6 g ,.].~.Z.2.s %             ",
"              - g $.).|.,.g 5 2 = , l c c c v c c c c x x l x k j x l x x c c c c c c c v l - = 2 5 g <.&XoXk.,.u X             ",
"              . : %.).|.<.C 6 5 2 = k c c c x v x x W < . $ $ # + + + O < v v x c c c v v l = 3 5 7 M <.|.).,.C &               ",
"                =  .P.).I...g 6 5 = l c v ! W ! W W k m U U L U U L K Y m l b W ! ! b v v k = 5 5 g } P.'.U.$.7 &               ",
"                = g o.I.@Xp.Z 5 5 = l c b ' [ [ [ ' = >.G.F.G.K.F.F.F.F.>.> ] ] ] ] ' v v k = 3 5 Z p.@X~.j.%.-                 ",
"                o * F x.Q.5.Z 5 3 = < v / ] [ [ / l :.u.i.E Y E E E E 5.u.:.x / ] ] ] ' c < = 5 5 Z p.;XY.1.D =                 ",
"                  + K 6.V.6.A 6 5 = = c ' [ [ [ ~ = v.h.Y # . . $ . O T z.v.% ~ [ [ [ ] x = % 3 5 Z p.@XI.X.0 =                 ",
"                  = 0 X.6.Z.&.7 5 3 * j W ] [ [ ~ ; v.-.$ O # $ O O # = :.n.; ~ [ [ ] W j * 5 5 7 { 6.K.d.F =                   ",
"                  + q D 4.A.4.M 5 5 & , v ) [ [ ~ ; v.;.O $ $ # $ . O . R v.; ~ [ [ ' v < & 5 5 M $.f.k.4.J +                   ",
"                    X f 4.A.g.} 5 5 * = z ) [ ) ~ ; n.;.. $ . . $ $ # O ;.v.; ~ [ [ ' j $ * 5 6 } g.B.4.{ t $                   ",
"                    + t  .f.6.o.g 5 2 * j ) [ [ ~ = 5.*.n O O $ . O O n *.8.= ~ ) [ ) k & 3 5 7 o.g.A.4.N &                     ",
"                    $ & M ,.2.$.M 6 6 1 , ) [ [ ^ = ..1.| = O $ $ $ # T 2.-.= ^ [ [ ) < 1 6 6 M #.g.V.2.u O                     ",
"                      o q &.7.1.#.7 5 1 , b ) ] ' ~ y * n ..% # # % ..n * y ( [ [ ) b ; 1 5 7 #.1.4.2.G e $                     ",
"                        -  .1.2.,.7 5 1 = l / [ ] ' k $ r  .a # # p  .r $ k [ [ [ / l > 1 6 7 ,.2.2.=.h -                       ",
"                        = g o.2.,.7 5 1 = < ^ ] [ [ [ l O - &.a n %.% # k ' [ [ [ ^ < = 1 5 7 ,.2.2.&.: .                       ",
"                        O 2  .u.d.M 6 5 q > ^ ] w.r.w.l % 4 N & ; N 4 # l [ r.[ [ ^ > q 3 6 V f.u.=.G -                         ",
"                          = F f.Z.A 7 5 5 = ~ ] e.y.w.k * 7 # + # # N * l [ y.r.[ ~ = 3 5 6 A V.g.} 7 =                         ",
"                          $ 9 o.5.,.M 5 2 = x / [ w.k 4 8 % + + O # # 4 t k [ [ ^ x = 5 5 M 1.A.f. .-                           ",
"                          + t A 1.2.C 5 8 = k ~ ] ] j p 8 % % * % * % 8 p k ) [ ~ j = 3 5 C 4.k.6.S +                           ",
"                            + s 2.2.C 5 3 = - b ] ] ] k * M g g g g g q k ] [ [ b = = 3 5 C 2.7.X.0 >                           ",
"                            + p o.1.Z 6 5 1 = c [ [ ] ! z 2 2 2 3 2 2 z ! ] [ [ v - q 5 6 A 2.2.S * O                           ",
"                            $ q M <.{ g 5 5 % c [ ] ] ] ! + + + + + + ~ [ ] ] ] c & 5 5 g { 1.1.s O                             ",
"                              O u ,.<.{ 5 5 - j ^ ] [ [ ) ~ ~ c c ^ ! ) [ [ ] ~ j & 5 5 { ,.<.{ r +                             ",
"                              X w #.1.X.5 5 & < v ] ] ] ] [ ] ! ! ] ] ] [ ] ] b < - 5 5 X.2.<.B w +                             ",
"                                - g &.X.5 5 & > l ] ] ] [ ] [ l l ] ] ] ] ] ) l = - 5 5 X.7.<.w X                               ",
"                                # p o.} 6 5 1 & j ^ ' ] [ ] / j j ) ] ] ] ) ^ j : 1 5 6 } <.X.:                                 ",
"                                  $  .o.g 6 5 1 > c ) ] ] ' v < < v ' ] ] ) c > 1 5 5 g o.$.g -                                 ",
"                                  = N Z g 6 5 1 = > l x x x l > < k x c x l , = 1 5 5 g Z C & o                                 ",
"                                  = 8 g g 5 8 q $ $ < j j , j > = < < < j , + = * 3 8 g g 8 +                                   ",
"                                  $ = = = = = + $ $ $ $ = $ = > = > > + + $ > + = = = = - = >                                   ",
"                                  = $ = * q e y q t e e e y e t e t t q e e e y e q * & - + +                                   ",
"                                    + q 5 5 g g g g g g g g g g g g g g V g C g M g 5 5 q +                                     ",
"                                    $ = * * w q q q t e q q q q e w q q q w q q q q * & = $                                     ",
"                                    $ $ $ $ $ $ $ $ $ > > $ $ $ $ > $ $ > $ $ $ = $ $ $ $ =                                     "
};
