/* XPM */
static char *_a48fa235b2a4600e131361d98881e7fkHrVBPQBs2siIXIT[] = {
/* columns rows colors chars-per-pixel */
"64 64 53 1 ",
"  c #35271E",
". c #36281E",
"X c #3B2A1E",
"o c #3D2C21",
"O c #422C1F",
"+ c #442E21",
"@ c #482F21",
"# c #453123",
"$ c #4C3222",
"% c #4D3322",
"& c #4C3422",
"* c #4F3623",
"= c #483124",
"- c #4A3124",
"; c #493324",
": c #4D3324",
"> c #4F3624",
", c #4C3426",
"< c #4F3826",
"1 c #463328",
"2 c #483428",
"3 c #4A3528",
"4 c #4B3629",
"5 c #4F3628",
"6 c #4F392B",
"7 c #4D3A2C",
"8 c #4F3A2F",
"9 c #503624",
"0 c #513725",
"q c #503526",
"w c #503727",
"e c #523726",
"r c #523825",
"t c #533825",
"y c #513826",
"u c #543827",
"i c #523728",
"p c #523828",
"a c #533828",
"s c #53392B",
"d c #573B29",
"f c #553B2A",
"g c #553C2B",
"h c #563A2D",
"j c #593D2B",
"k c #5B3F2F",
"l c #563E31",
"z c #5A3F31",
"x c #5C402E",
"c c #5C4131",
"v c #5C4231",
"b c #5E4230",
"n c #5D4234",
/* pixels */
"><<y5y5yyy<a<a<a<a<aa<a6aa6<a<a<a<a<a<a<a<5<>%>%>>:5yOX=*yyiwwty",
"++=>y5yyaya<a<a<aya>>>=>>>6>yy<a<a<a<a<a<ayaya<aiywyg4oO%wi>wyyt",
"+=>w5yyyya<a<a<a<aa>++11>aywyaa<a<a<a<a<a<aya<a<wwwwx4O=wr>5ywyy",
"yyyyayyyayaya<a<ay>a55vvvbtw<a<a<a<a<a<a<a<aya<auww%@XO=rr>iawww",
"wytyyy>iwwww<ya<a<a<aywwiia<a<a<wwyw<aaaa<a<yayyww<yy=+<aayi%a+X",
"wyyyyy5:%rwwya<ayayayayy<i<a<a<awww:>=5>>ayaaya6ywyav6+><>5awywo",
"%%wyay>>%%6w>ya<yywwayyyawy<a<a>yw::*=>5%>ya<a>>==+,8=#*wwtyaywy",
"wrwtaaaaiuaay6aaaaawwaywa6aaaaa6uuiiwaiiy6ay5>5>%==+XX1<yywaaaty",
"=i>5y<a5iwuwyyyywyyw%%wwwuwwyyyywtyyiwiyyahjgzvzzzzvho+,wwii<yya",
"@@=========@========#O@@=@=@=========@===>4>5ahhishl5X.X+@======",
">:>>w*>>w%r%%%%%==@+OOXXOO@@%Ow%rww%w*rw>>*:>>:>5>>>>,,,rr*>>>>>",
"a5a<i>a>wwwwwwww>>*>%Oo+@@@*ytwwwyyyw>wy5aai56a<i5ya<5<a*w>iiyi5",
"a6wyayi>5>wwwwwwyyay:@o+@%w9>>6wwwyyyyyy6yyaya<ayayaa<a<a<a<5aya",
"a<a<y5=+++@:wrwrayyaw@X@wwww5>wwwwwwywyyyy<aa<a<yyay<a<a<ayaa<y<",
"<ayay>++XXXX%%wryayyw#.@w9wwa<ayyaywywwy>aay>aya<ayaa<a<a<ay<aay",
"a<a<wiii::%rwuuwtyyywX .@%wwyayatyww%=@X+o#<yya<a<a<<a<a<ayyy>%=",
"<a<a<a<aayaya<<a6wwyg1.X@wwwwyayyay>>>5>>>>ayayy<a<aya<a<ai>:@@@",
"a<a<a<a<<a<a<aayy%*a41  Owwwytyaaya<a>6<6aa<ayy6a<a<a<a>>>%@+XX+",
"<a<a<a<aayyaayaawr%*##  o+rwayyy<ayayaaa>6ya<aaayy<ayaaa>5;%@++@",
"aaaaaaay>yaw<yyyyywwy6   X+=wyyt<a6aaaaaywaai6iia6aaa6aaaatyiwii",
"<><>>>5y*>:**=%%<w>ivo. oXo+=w%6>>5<w*<>wr>>r>>>>5*>6*>>wwrwwwww",
"=@==#+@@@#+++@@@#===,oooooo+@=@=====+=========@=======@=O=+O@@@@",
"w>aw%%*==%@%%wwwww>6><<6a>55ww>5a>6>5<>ii>>iwrww>5y5wwa>wrww5:%%",
"aayyay5>%rw*rwayww<aaay>yyyyauay<ayw6aayywi6ywrwa<yawwyytwwww>i%",
"ya<aa<a<yyyatayywyyywwtww$====;*5yaa<yyyuruuruuryytw<aa>uwyyyyww",
"a<a<<a<aa<aytwyyyyyywwwww9=+#=#%ay>yayyywwwwwwwwwwywy>=%wrrwyayy",
"<a<aa<aiy5<awwwwyaayuwwwywtyyyyy>6yiay5>==%%%r%wwwwway>>ruwrayay",
"a<a<<aa:>5>>wwwwaayawuwwyyyyy<a>a<*%:=+oXXOO=%%wr$=5yy5ywrrwyaya",
"<a<a<6%%=#OO%%%w>5wwwwiwyy<aya<ayyw:=++oXoO==wi:rwrw<ayawwyt>a<>",
"a<a<yy>5>>=%%%%%==w@9r9utyaya<a<ywwiywi%rwwwwwwywrrwa<a<ww>=+o,#",
"aaaaaaiiaaawywwi*wrw9wruaaaaaaaaaaaaiaiiaaaawtayutuwaaaaytww65<>",
"<a<aya<aaa6yyawtwu>>9r9wyaya<a<ayayayywwyytyttytwwwrayayaywwya>a",
",>,,>5=>;,,,>>=>,>,,5>3>w=>:>>=>>3%r%>=w>:,,,;r%*=w:>3=>=>=*==%=",
"===,======,==:=====,==@====%===@=@=O@@@@%O@@@==O@+%===>=++OOO@@%",
"yya<iwa<yya<iw65yya<>a<awtwy5w<>wwwwwwr%5y>>r*ww>>i><aa>%%+X#%%y",
"yyyayy<ayaya<aa5yyyay<a<tyyywwaywywtw5aw<5aawrwwayyaa<ay>%OO%%ry",
"a<a<aya<yyy5ii>>y5wy<a<aya<ayyyayywwwrwwa<a<a<a<a<a<a<ayyy%X=%ww",
"ya<aya<aay%==@++=>>aa<a<aya<<aa<ayywwwrw<a<a<a<a<a<a<ayyy<5X=r>r",
"a<a<ayayyyww5y<55iii<a<a<a<aa5>>w*%%%%rra<a<a<a<a<a<a<a<y=XX%%ww",
"<a<ayayyytwwyya<yya<a<a<a<a<<ay>>%%%%w>><a<a<a<a<a<a<a<aywO %rrw",
"a<a<a<a<a<6<ayyaa<ayaya<yaya<aya>%%=%>iiyya<aya<a<a<ayayw%+ +y<y",
"<a<a<a<aaayy<aay<a<a<a<aayaya<a<ww%%>y5<yyyaya<a<a<ayayayy+ X;yy",
"yayaaayyi>yy>a<5ya<a<ayyiiyw<ayawwwwyyyyyayyyyyyyyaayyyyjxhoo@>>",
">:>:>::>>>=4=>>:>::::::>%%rw>::::%%%,::=:=:>=>,::>::>>whxbs.++:>",
":=:==:=:aslgoX+@O%==:=::==:=:=:=::=azzzkzzzz>ax::=:=%=:=>==#@::@",
"yayaayyiaava5 o=>ww<iaa>a<yaaya<wiaakgzggkzgaaj5iyyyy6yi>ay<wiii",
"aya<a<ayya5y= +=yya6ya<a<a<aya<ayaya6yyaiya<a>yyaaiwaa>a5iyayaia",
"w5<a<a<aayy>#+=>>>>5><aya<aya<ayayayyyayya<aa65=+oo+oo++:iayayay",
"%%:wyyayi>>>o o.XO+#%yya<a<aaya<yya<<a<a<a<ayy5>=ooooo+%<ya<y<>5",
"=%:%w<yayi>,+ X++wyiwaa<ayayyi<a5y<aa<ayayayyw6yaa>6>iyyya<aa>>a",
">iwtyayyy=o=X+#<wtwwwyya<a<ay>%%:5<y<aya<a<ayy6<wiyyyyayaya<aya>",
"iayyayyyy>,g1X*;wwwwwyaya<a<ayyi5ya<a<aya<ayayaay<ayayaa<a<ayyy6",
"5<<ayayyywyy=X++=r>wwyyy<ayyyytyyyyywtya<a<ai<aaayyayaayyayuaya<",
"ayaya<yy%*yg6o=1%wwwwyawa<yyyyww5yyywwaya<a<ii>>a>aiy<yyyyywyyy<",
">>yi<>ww<%##XO><wwywyyww<>6wawwawwaaiitww6>>=>+@=@=:iwyaayaawway",
"=@@==#+++#OX.+=#%==%===###=@@::@@*=+%@@@@==+++++++@+@==@@:@:@:@=",
"n>OOO@=O==>3%,>>>>>==+o+XXo@==>>www@==O@+>:>iv4nhh>>>>>>wwww%w>>",
"z=OO=%wwyyyawaaya<5a55>>==y5aa5awwaywwiwiyyaag4lyiiaa6aywwyaiiii",
"@o@wwwwtyyty<a<a<a<a<yaayyay6yayuwyywwwwyy5:+#o>yya<>ayywwuy<aii",
"l4=rwwwwyyyaa<a<a<a<a<yyyyyyyy<awuawr*rwayty5ao#>>>6>>y<wuwyaya<",
"1o==>yiiyayyyii5a<aayayyyayaayayyyw%=%%r5yyy<<ooXoo++o=#3>+>ya<a",
"b1*yay5<ayy5>>5><yyya<ywayayyy<aywwwww>r<a5y*;ooo ol=>4=>=15>aa<",
"x22<yaayyaya%=++%aywaaa6y6aawaaatattwu>5>yyy>==na>5h6waawiaayaaa",
"g2,yyay<aaaay<a6aay6aaaaaaaa6aaaaaywuuwwayy>%#+ga<aaaaaaya<aay6a"
};
