/* XPM */
static char *b463560e11b7476fae3d93e570de15536aciHdMpMCG0tTVG[] = {
/* columns rows colors chars-per-pixel */
"64 64 145 2 ",
"   c None",
".  c #000000",
"X  c #090706",
"o  c #060909",
"O  c #0D0C0A",
"+  c #110E0C",
"@  c #14110E",
"#  c #0C1010",
"$  c #151413",
"%  c #1E1A16",
"&  c #131B1B",
"*  c #1D1C1A",
"=  c #211D19",
"-  c #26211C",
";  c #192223",
":  c #2D2621",
">  c #2B2822",
",  c #282828",
"<  c #312A24",
"1  c #322E28",
"2  c #3C332C",
"3  c #243334",
"4  c #2C3939",
"5  c #3E3931",
"6  c #3C3C3C",
"7  c #41372F",
"8  c #423A32",
"9  c #493E35",
"0  c #4E4137",
"q  c #4B433A",
"w  c #52463C",
"e  c #55493F",
"r  c #344849",
"t  c #534C42",
"y  c #575146",
"u  c #5D5146",
"i  c #5C5549",
"p  c #575758",
"a  c #5A5A5A",
"s  c #615448",
"d  c #635B4F",
"f  c #6E5D50",
"g  c #605A54",
"h  c #6B6155",
"j  c #736354",
"k  c #756B5D",
"l  c #7B695A",
"z  c #466162",
"x  c #6C6964",
"c  c #69726B",
"v  c #7C7363",
"b  c #757C72",
"n  c #806D5D",
"m  c #857464",
"M  c #887464",
"N  c #867B6B",
"B  c #8E7A68",
"V  c #95826F",
"C  c #8E8372",
"Z  c #9C8572",
"A  c #948977",
"S  c #968A78",
"D  c #998C79",
"F  c #9E927E",
"G  c #AB927D",
"H  c #5E8485",
"J  c #7AABAC",
"K  c gray54",
"L  c #9D9D9D",
"P  c #959595",
"I  c #A39682",
"U  c #A69984",
"Y  c #AA9A86",
"T  c #B49983",
"R  c #B89D86",
"E  c #BDA48D",
"W  c #B4A690",
"Q  c #BDAC94",
"!  c #B4AC98",
"~  c #87BCBE",
"^  c #89BDBE",
"/  c #A4A4A4",
"(  c #A9A9A9",
")  c #BABABA",
"_  c #B5B5B4",
"`  c #C2A58E",
"'  c #C4AB93",
"]  c #C2B39B",
"[  c #CBB89F",
"{  c #D4B49A",
"}  c #D2B99F",
"|  c #DABA9F",
" . c #CEBDA4",
".. c #D0BFA6",
"X. c #E0BFA4",
"o. c #CBC0A8",
"O. c #D0C0A7",
"+. c #D3C2A9",
"@. c #DCC6AB",
"#. c #DFC9AE",
"$. c #DFCEB2",
"%. c #D9D1BD",
"&. c #E4C2A6",
"*. c #E5C6AA",
"=. c #E9C7AA",
"-. c #E2C8AC",
";. c #EAC9AD",
":. c #EFCEB1",
">. c #E5D3B7",
",. c #EFD4B7",
"<. c #E7D5B9",
"1. c #E8D6BA",
"2. c #F0D3B6",
"3. c #F2D6B9",
"4. c #F4D9BC",
"5. c #FBDEBF",
"6. c #8DC3C4",
"7. c #9EDDDF",
"8. c #A7EAEC",
"9. c #AEEEEF",
"0. c #ABEEF0",
"q. c #B5FDFE",
"w. c #B9FEFE",
"e. c #D7D7D7",
"r. c #F5DEC0",
"t. c #D3E3D2",
"y. c #E5E4CE",
"u. c #F6E2C5",
"i. c #FAE3C5",
"p. c #FBE7C9",
"a. c #FFEBCC",
"s. c #EBECD6",
"d. c #E1ECD9",
"f. c #EDEFD9",
"g. c #F0EFD7",
"h. c #FEEFD0",
"j. c #EEF0DA",
"k. c #FFF1D1",
"l. c #D5F6EA",
"z. c #CDF8F0",
"x. c #E9E9E9",
"c. c #E9F5E1",
"v. c #F6F6F6",
"b. c #FFFFFF",
"n. c #FDFDFD",
/* pixels */
"                                                                                                                                ",
"                                                                                                                                ",
"                                                                                                                                ",
"                                                . . . . . . . . . . . . . . . .                                                 ",
"                                              . . . . . . . . . . . . . . . . . .                                               ",
"                                  . . . . . . . . . . . . . . . . . . . . . . . . . . . . . .                                   ",
"                                  . . . . . . $ - = - - - - - - - - - - - = - - @ . . . . . .                                   ",
"                              . . . . . . . . f | { { { { { { { { { { { { { { | f . . . . . . . .                               ",
"                              . . . . 7 t u i Y 3.2.2.2.2.2.2.2.,.2.2.2.2.2.2.3.Y i u t 7 . . . .                               ",
"                          . . . . . X G =.5.a.a.a.a.a.a.a.a.a.a.p.a.a.a.a.a.p.a.a.a.4.=.G o . . . . .                           ",
"                      . . . @ n B D F #.4.p.a.a.a.a.a.a.a.a.a.a.p.a.a.a.a.a.a.a.a.a.p.5.-.F D B n @ . . .                       ",
"                      . . O < | :.p.h.a.a.a.a.a.a.a.a.p.a.a.a.a.a.a.a.a.a.a.a.a.a.a.a.a.a.k.p.:...< O . .                       ",
"                  . . . : T ' u.i.a.a.a.a.p.a.a.p.a.a.a.a.p.a.a.a.a.a.a.a.a.a.a.a.a.a.a.a.a.p.p.5.' T : . . .                   ",
"                . . @ < s ;.2.p.a.a.a.a.a.a.a.a.a.a.a.a.a.a.a.a.a.a.a.a.a.a.a.a.a.a.a.a.a.a.a.a.p.2.;.s < + . .                 ",
"            . . . . 0 | *.p.p.a.a.a.a.a.a.a.a.a.a.a.a.a.a.a.a.a.a.a.a.a.a.p.a.a.a.a.a.a.a.a.a.a.a.a.p.*.| 0 . . . .             ",
"            . . . . t 3.4.a.a.a.a.a.a.a.a.a.a.a.a.a.a.a.a.a.a.a.a.a.a.a.a.a.a.a.a.a.a.p.a.a.a.a.a.a.p.4.2.t . . . .             ",
"            . . . . i a.a.a.a.a.a.a.a.a.a.a.a.a.a.a.a.a.a.a.a.a.a.a.a.a.a.a.a.a.a.a.a.a.a.a.a.a.a.a.a.a.a.i . . . .             ",
"          . . . 9 Z ' p.p.a.a.a.a.a.a.a.a.a.a.a.a.a.a.a.a.p.a.a.a.a.a.a.a.a.a.a.a.a.a.a.a.a.a.a.a.a.a.a.a.` Z 0 . . .           ",
"        . . . . j :.3.a.a.a.a.a.a.a.a.p.a.a.a.a.a.a.a.a.a.a.a.a.a.a.a.a.p.a.a.a.a.p.a.a.a.a.a.a.a.a.a.a.a.3.:.f . . . .         ",
"        . . . . k p.p.a.a.a.a.a.a.a.a.a.a.a.a.a.a.a.a.a.a.a.a.a.a.a.a.a.a.a.a.a.a.a.a.a.a.a.a.a.p.a.a.a.a.p.a.k . . . .         ",
"        . . - 2 D k.a.a.a.a.a.a.a.a.a.a.a.a.a.a.p.a.a.a.a.a.a.a.a.a.a.p.a.a.a.a.a.a.a.a.a.a.a.a.a.a.a.a.a.a.h.D 7 = . .         ",
"    . . . . m &.,.a.a.a.a.h.h.a.a.k.a.k.a.a.a.a.a.a.a.a.a.a.a.a.a.a.a.a.a.a.a.a.a.a.a.a.h.h.h.a.h.h.h.a.a.a.h.,.&.m . . . .     ",
"    . . . . M =.3.a.p.p.#.m v v v v v v v +.h.a.a.a.a.a.a.a.a.a.a.a.a.a.a.a.a.a.a.a.+.v v v v v v v m #.a.a.a.3.=.M . . . .     ",
"    . . . . M =.3.a.p.r.W O X . o . . . . F p.p.a.a.a.a.a.a.p.a.a.a.a.a.a.p.a.a.p.p.I o . X . . . . o ! p.p.a.3.=.M . . . .     ",
"    . . . . m =.3.k.Q 8 a _ ) ) ( * . . . > 8 U k.a.a.a.a.a.a.a.a.a.a.a.a.a.a.a.U 5 x ) ) ) L $ . . . 1 9 Q k.3.=.M . . . .     ",
"    . . . . M =.3.a.I . 4 v.n.b.x., . . . . . N k.a.a.p.a.a.a.a.a.a.a.a.a.a.a.k.N . p b.b.b.e.$ . . . . . I k.3.=.m . . . .     ",
"    . . . . M =.3.k.U . t v.b.b.x., . . . . . N k.a.a.a.k.k.k.k.h.h.h.k.a.a.a.a.N . a b.b.b.e.& . . . . . U k.3.=.M . . . .     ",
"    . . . . M =.3.k.U . , L / / P * . . . . . N k.a.a.>.Y U U Y U Y U Y >.a.a.k.N . 6 / / / K O . . . . . U k.3.=.M . . . .     ",
"    . . . . m =.3.k.U . . . . . . . . . . . . N a.a.k.W o . . . . . . X W k.a.k.N . . . . . . . . . . . . U k.3.=.m . . . .     ",
"        . . 2 u Y k.U . . . . . . . . . . . . N k.] h q . . . . . . . . q h ] k.N . . . . . . . . . . . . U k.Y u 2 . .         ",
"        . . . . k a.Y O O . . . . . . . . X O C k.A . . . . . . . . . . . . S k.C O O . . . . . . . . O O Y a.k . . . .         ",
"        . . . . j 2.-.O.D . . . . . . . . N  .>.k.D . .                 . . D k.>. .m . . . . . . . . D O.-.2.j . . . .         ",
"        . . . . e R } k.o.4 3 3 3 3 3 3 3 ! h.a.h.D . .                 . . S k.a.k.! 3 3 3 3 3 3 3 4 o.k...R e . . . .         ",
"            . . X X d a.s.9.0.0.9.0.0.0.0.d.a.a.h.A . . . . . . . . . . . . A h.a.a.d.0.0.0.0.0.9.9.9.s.p.d X X . .             ",
"            . . . . e 4.y.q.q.q.q.q.q.z.l.g.a.a.a.] h h h h h h h h h h h h ] a.a.a.g.l.z.q.q.q.q.q.q.y.4.t . . . .             ",
"            . . . . w &.%.q.q.q.q.q.w.f.a.a.a.a.a.a.a.h.a.a.a.h.a.a.a.h.h.a.a.a.a.a.a.a.f.w.q.q.q.q.q.%.&.w . . . .             ",
"                . . % 0 c q.q.q.q.q.q.f.a.a.a.a.a.a.a.a.a.a.a.p.a.a.a.a.a.a.a.a.a.a.a.a.f.w.q.q.q.q.q.c 0 % . .                 ",
"                  . . . 3 7.8.q.q.q.q.j.a.a.a.a.a.a.a.a.a.a.a.a.a.a.a.a.a.a.a.a.a.a.a.p.f.q.q.q.q.8.7.3 . . .                   ",
"                      . o ; r 0.w.w.w.f.p.a.a.a.a.a.a.a.a.a.a.a.a.a.a.a.a.p.a.a.a.a.a.p.j.w.q.w.9.r ; o .                       ",
"                      . . . & J ^ ~ ^ t.j.h.a.a.a.a.a.a.a.a.a.a.a.a.a.a.a.a.a.a.a.a.h.j.t.^ ~ ~ J & . . .                       ",
"                          . . X o o O 6.w.c.a.h.a.a.a.a.h.a.p.a.a.a.a.a.p.a.a.a.h.h.c.w.6.O o o X . .                           ",
"                            . . . . o z H b m Q 4.2.3.4.4.3.4.2.3.4.4.4.4.2.4.4.Q m b H z o . . . .                             ",
"                              . . . . . . . . j &.X.@.&.&.@.X.X.X.X.@.X.X.X.@.&.j . . . . . . . .                               ",
"                                  . . . . . . = 7 7 7 7 5 7 7 7 7 7 7 7 7 7 7 8 = . . . . . .                                   ",
"                                  . . $ * = - O . . . . . . . . . . . . . . . . + - = % $ . .                                   ",
"                              . . . . Z { @.>.h . . . . . . . . . . . . . . . . h 1.@.{ Z . . . .                               ",
"                              . X 7 w ' 3.i.k.U w t t t t t t t t t t t t t t t I k.i.3.' w 2 . .                               ",
"                          . . . @ ` *.u.a.a.a.a.a.p.a.p.a.p.p.a.p.p.p.a.p.p.a.p.a.a.a.a.i.=.` @ . . .                           ",
"                          . . . @ ` =.i.p.U h Q k.a.a.a.a.a.a.a.a.a.a.a.a.a.a.a.Q h I a.i.=.` @ . . .                           ",
"                          . . . @ ` =.i.p.y . N a.a.a.a.a.a.a.a.a.a.a.a.a.a.a.a.N . y a.r.=.` @ . . .                           ",
"                          . . . @ ` ;.p.a.i . l ,.3.a.a.a.a.a.a.a.h.a.a.a.a.4.:.v . i a.i.;.' @ . . .                           ",
"                          . . . + Z E [ +.q . l =.3.a.a.a.u.+.+.+.+.u.a.a.a.2.*.l . q ..[ ` Z + . . .                           ",
"                              . . O + + O X . l =.,.a.a.a...* + + * +.a.a.a.2.=.l . X O + + O . .                               ",
"                              . . . . . . . . l =.2.a.a.a. .O . . O  .a.a.a.3.=.l . . . . . . . .                               ",
"                                  . . . . . . l =.2.a.a.h. .O . . +  .a.p.a.,.=.l . . . . . .                                   ",
"                                      . . . . : w V 2.2.3.' O . . O Q 3.2.2.V e : . . . .                                       ",
"                                      . . . . . . e { { { G O . . O G { { { e . . . . . .                                       ",
"                                          . . . . + - - - % . . . . % - - - + . . . .                                           ",
"                                            . . . . . . . . . . . . . . . . . . . .                                             ",
"                                              . . . . . . .         . . . . . . .                                               ",
"                                                . . . . .             . . . . .                                                 ",
"                                                                                                                                ",
"                                                                                                                                ",
"                                                                                                                                "
};
