/* XPM */
static char *_7af2d543e0043bf9dab98c4dc5dc71eik8Z7HZoW5zBMkYe[] = {
/* columns rows colors chars-per-pixel */
"64 64 141 2 ",
"   c None",
".  c #28231F",
"X  c #31281F",
"o  c #242322",
"O  c #2A2524",
"+  c #2C2823",
"@  c #2D2728",
"#  c #2F2829",
"$  c #302722",
"%  c #322924",
"&  c #362B2C",
"*  c #392D2E",
"=  c #3C302F",
"-  c #3B2F31",
";  c #3E3132",
":  c #433435",
">  c #483736",
",  c #453937",
"<  c #463738",
"1  c #463738",
"2  c #463838",
"3  c #47393A",
"4  c #473839",
"5  c #493838",
"6  c #483938",
"7  c #493939",
"8  c #493A39",
"9  c #48393A",
"0  c #49393A",
"q  c #493A3A",
"w  c #493A3B",
"e  c #4A3A3A",
"r  c #4A3A3B",
"t  c #4A3B3B",
"y  c #4B3B3B",
"u  c #4C3A3B",
"i  c #4D3C3B",
"p  c #4B3B3C",
"a  c #4B3B3D",
"s  c #4C3B3C",
"d  c #4B3C3C",
"f  c #4D3D3C",
"g  c #4D3D3D",
"h  c #4D3D3E",
"j  c #4E3D3E",
"k  c #4F3D3E",
"l  c #4D3E3F",
"z  c #4E3E3F",
"x  c #4F3F3F",
"c  c #4C3C3C",
"v  c #503F3E",
"b  c #503F3F",
"n  c #503F3F",
"m  c #4E403F",
"M  c #50403F",
"N  c #51403F",
"B  c #52403F",
"V  c #4F3F40",
"C  c #503E40",
"Z  c #513F40",
"A  c #504040",
"S  c #514040",
"D  c #514140",
"F  c #514041",
"G  c #514141",
"H  c #534140",
"J  c #524041",
"K  c #534141",
"L  c #534240",
"P  c #524241",
"I  c #534241",
"U  c #524142",
"Y  c #534242",
"T  c #534243",
"R  c #544141",
"E  c #544241",
"W  c #554241",
"Q  c #544341",
"!  c #554341",
"~  c #564241",
"^  c #544242",
"/  c #554242",
"(  c #554342",
")  c #544243",
"_  c #554343",
"`  c #564342",
"'  c #564343",
"]  c #554442",
"[  c #554443",
"{  c #564443",
"}  c #574443",
"|  c #574543",
" . c #544244",
".. c #554445",
"X. c #574544",
"o. c #574445",
"O. c #544241",
"+. c #584544",
"@. c #5A4545",
"#. c #584645",
"$. c #594645",
"%. c #5A4645",
"&. c #584446",
"*. c #584546",
"=. c #594746",
"-. c #584647",
";. c #5B4746",
":. c #5A4747",
">. c #594645",
",. c #5B4847",
"<. c #5B4847",
"1. c #5A4748",
"2. c #594848",
"3. c #5B4848",
"4. c #5C4948",
"5. c #5D4948",
"6. c #5D4A49",
"7. c #5E4A49",
"8. c #5D494A",
"9. c #5E4A4A",
"0. c #5E4B4A",
"q. c #5F4B4B",
"w. c #5F4C4B",
"e. c #5F4C4C",
"r. c #5D4A49",
"t. c #604C4B",
"y. c #604D4C",
"u. c #614D4C",
"i. c #624D4C",
"p. c #624D4D",
"a. c #614E4C",
"s. c #604E4D",
"d. c #614E4D",
"f. c #624E4D",
"g. c #634D4E",
"h. c #634E4E",
"j. c #634F4E",
"k. c #644F4F",
"l. c #624E4E",
"z. c #64504F",
"x. c #644F50",
/* pixels */
"            O O O . o O O O O O o o + o O O O o                 $ O o o O O O O + o O o O O o O O . o                           ",
"          O o o o o o o o o o o o o o o o o o o +               o o o o o o o o o o o o o o o o o o o                           ",
"          # O o o o # & # & # # # & % & * & @ o %               + o O O O O o @ # & # % # # # o O O O                           ",
"      O o # & & & * h I B M M M G I T E r.e.: & % o O o o O o o & & & & & & & 5 G G T I G G , & & & & + O O                     ",
"      O o % * & * * h ' ] B ] ] E E E %.p.p.> * & o o o o o o o & & * & & & & a E E E E E E > * & & * @ o o                     ",
"  + + # # : e e e w I E ] ] I I E E E ~ @.%.E I 3 # @ & @ @ @ & 1 e e w V 1 a V E E E E E E M e w w e ; # # + %                 ",
"O o O & * w ..E E E ' E E E I I E E E E E E 0.j.T & & & & & & * h E E E E E Z Z I E E E E E E E T E T : & % o o                 ",
"+ o O * ; h I I E E ] ] ] E E E E E E E E E 5.i.Z * & & & - ; : M E E I ' ' @.1.%.] E E E E E E T I E e ; * @ o                 ",
"o o @ V I E E E E E 0.d.,.I E E E E E E E E E ~ u & & * & : Z Z E E E E ..d.d.d.d.0.E E E E E E E E E I Z w * % + O +           ",
"+ o # G E E E E E E e.x.0.I E E E E E E E E E E e & & & & < E E E E E E ] e.j.d.j.<.E E E E E E E E I E ' V * & O o O           ",
". o # G E E E E E E %.%.%.E E ,.<.%.E E E E E E w & & & & < E E E E E E h e e e 5 v <.0...E ] 0.%.1 < u T Z e < & # & @         ",
"  o % b E E E E E E E E E E E d.d.5.E E E E E E w * & & & : E E E E E E h * & & & < g.j.%.E %.x.0.- & 1 I I I I ; & # o O       ",
"  o # m E | ] E E E E E E E E 0.i.%.E E E E ] ] w * & & * : E E E E E E Z ; - * & : %.1.' ' ..2.' : - e E E E I ; & # o o       ",
"  o # B E <.d.0.E E E E E E E E | E E E E I 0.d.I * & & & : E E E E E E I I h ; & & * : ..x.I * ; h Z Z E E E I : & # o o       ",
"+ o # m E 0.j.0.E E E E E E E E E E E E E E 0.x.I * & & & : E E E E E E I E I : & & & * ..x.m & - b E E E E I I : & % o o       ",
"  o + ; < E <.%.E ] E E E E E E E E E E ,.<.I w : & & & & < E E E E E E I I I e 1 ; * & 3 u : & * h E E E E E E w 1 ; o o       ",
"  o o & - w T ] E E E E E E E E E E B t.i.i.> & & & & & & : E E E E E E E E E E E e * & & & & & * b E E E E E E E E 3 o o       ",
"  o o & * 3 V I E E E E E E E E E E B B t.@.: & & & & * - > E E E E E E E E E E ..e & & & & * * ; M E E E E E E E E , o O       ",
"+ o + & & * * : E E E E E E E E E E B v : * & & & & * u b b E E E E E E E E E ,.d.I * & & & : h b E E E E E E E E E u & & + O   ",
"+ o + # & * * ; E E E E E E E E E ~ n i & & & & & & * u E E E E E E E E E E E 0.j.T * & & & < E E E E E E E E E E E e * & o o O ",
"@ o O # & & & - 1 e b E E E Z @.;.B > : & & & & & & * u E E E E E E E E ] ,.%.E h 1 * & & & ; , e M E E E E E E %.1.V - & o o + ",
"+ o O & & & & & & * h E E E @.i.i.> & & & & & & & & * v E E E E E E E E ..d.d.< & * & & & & & & * b E E E E E E 0.x.Z & & o o O ",
"  o O & & & * & & * u b b b n 5.t., & & & & & & & & * v E E E E E E E ] ..e.2.: % * * * * * * & * h I E E E E E 1.x. .- & O o O ",
"      o o # & & & & - : - ; - : : * & & & & * & & & * v ~ E E E E E %.d.2.: ; * * ; i h h h : & * - - e E E E E 0.x.Z & & O o   ",
"      o o # & & & & & & & & & & & & & & & & & & & : & i B ~ ~ E E E 2.x.%.* & & & ; I E E I > * % & * 1 E E E E 0.j.@.* & O o   ",
"      o o # & & & & * & & & & & & & & & & & & & & & & > > v 5.| %.%.' Z w - & ; : e I E E E u : : : : h E E E E 0.j.Z * & o o   ",
"      o o # & & & & & & & & & & & & & & & & & & & & & & & u i.i.j.d.w * & & & e ' E E E E E E E T I E E E E E E 1.j.@.* & O o   ",
"      o o @ & & & & & & * & & & & & & & & & & & & & & & & > t.t.p.0.w & * * * u E E E E E E E E E I E E E E E E 0.j.Z * & o o   ",
"          + o @ & & & & & & & & & & & & & & & & & & & & & : : : : : * & - w h b E E E E E E E E E E E E E E E E q.x.Z - & o o   ",
"          O o @ & & & & & & * & & & & & & * & & & & & & & & & & & & * & ; b E E E E E E E E E E E E E E E E E E 0.x. .& & o o   ",
"            o + # % & & & & & & & & & & & & & & & & & & & & & & & & & & ; I E E E E E E ' %.@.I E E E E E E %.%.q.x.' & & O o   ",
"                o o & & * & & & & & & * & & & * & & * & & & & & & & & & ; B E E E E E E 0.d.1.E E E E E E E p.d.x.d.T & & O o   ",
"                o o # & & & & & * & * * & & & & & & & - & & & & & & & & * B E E E E E E 0.d.0.E E E E E E ..d.j.j.j.' & & o o   ",
"                    @ O # & & & & : e 1 & & & & & & & & & - & & & & & & : <.0.| E E E E %.%.E E E E E E E %.j.j.j.j.' & & O o   ",
"                    o o O & & & & 1 E h * & & & & & & & & & & & & & & & : q.j.5.I E E E I I E I E E E E E ..j.j.j.d.E - & O o + ",
"                      o @ & # & & : u > : - * & & & & & & & & & & & & & - E %.~ %.' @.' ..%.] %.%.E %.| ' %.' @.%.%.h % # + o   ",
"                          o O & & * - - Z Z : * & & & & & - & & & & & & & - - I p.p.p.p.g.g.g.g.d.d.d.d.x.1.- * & - & o o       ",
"                          o o & & & * - Z ~ : & & & & & & & & & & * & & & & * I g.g.p.x.t.g.g.g.d.d.d.d.d...* & & & @ o o       ",
"                          o o & & & & - Z Z : & & & & & & & & & & & & & & & & : 1 u u 1 1 1 > > 1 e 1 e e < & & & & # o o       ",
"                          o o & & & & : Z Z : & & & & & & & & & & & & & & & & & & & & & & & & & & & & & & & & & & & # o o       ",
"                          o o % & # # & V V - @ # & & & & & & & & & & & & & * & & & & & : $ & & & & & & & & & & & & # o o       ",
"                              . o o o o o o o o @ & - & & & & & & & & & & & & & & & : & & & & & & & & & & & & & & & # o o       ",
"                              O o o o o o o o o o & & & & & & & & * & & & & & & & & % & & & & & & & & & & * & & & & # o o       ",
"                      + + O O % O # O @ o @ @ @ @ @ o & & & & & & & & & & & & & & & & & & & & & & & & & & & & & & & & o o       ",
"                    O o o o o & & & & & # & & & @ o o & & & & & & & & & & & & & & & & & & & & & & & & & & & & - & & @ o o       ",
"                    O o o o o * - * - - - - & & & o o # & & & & & & * & & & & & & & & $ & & & : - * : * & & & & & & # o O       ",
"            o o o o & # & & * h V h V V V V ; & & # & O o @ & & & & & & & & & & & & & : & & : k n n u : & & & & & & & o o       ",
"          o o o o o # & & & * Z E I T T  .C < & & & & o o O & & * & & & * & & & & & & & & & : n ~ Z Z : & & & & & & % o o       ",
"          + @ @ O # ; < < < > b E E E E E E u < ; & & o o o O # & & & & & & & & & & & * ; 1 u E ~ E E b h , * * & & # o o       ",
"      o o # & & & - h Z E E E E I I E E E E E E w * * o o o o o % & & & & * & & & & & * h ..E E ~ E E 1.x.-.* & & & @ o o       ",
"      + o # & & & - V ' E ] E E I ' E E E E Z M , * % o o o o O & & & * & & & & & & & * h M b E E E ~ 5.8.T * & & & # o o       ",
"  O O & & & & : V u Z ' E E E E I ' E E E Z < - * & & @ o O     O o # & & & & & & & & & * = < E | 1.p.h ; ; * & & & # o o       ",
"% o O & & & & : E E E E E E E E E E E E Z Z - & & & & o o o     o o @ & & & & & & & & & & & : I ] i.d.u & & & & & & # o O       ",
"% o o & & & & - > e b E E E M 8 5 5 5 e u a - & & & & @ @ +         + # # & & & & & & & & & ; e e h h : & & & & & @ @           ",
"% o o & & & & & * * h E E E M * * & & & * & & & * & & & * @ o .     + o O % * & & & & & * & & & * & * & & & & & o o O           ",
"+ o o & & & & & & * h I M I b * & & & & & & - & & & & & & @ o o     X o O & & & & & & & & & & & & & & & & & & & O o             ",
"O o o & & & & & & & - ; ; ; ; & & & & & & & & & & & & & & @ o o           O O % & & & & & & & & & & & & * & o O                 ",
"  o O & & & * & & & & & & & & & & & & & & & & & & & & & & + o .           o o # & & * & & & & & & & & & & % o o                 ",
"  O O # # # + % % @ # @ % & & & & & & & - & & & & & & # # @ o o             O @ # @ # # # @ # # # # # # # # O                   ",
"      o o o o o o o o o @ * & & & & & & & & & & - & & o o o o .               O o o o o o o o o o o o o o o                     ",
"      o o o o o o o o o @ & & & & & & & & & & & & & # @ o o o O               O o o o o o o o o o o o . o O                     ",
"                          O O O O o O O O @ o @ O O @                                                                           ",
"                          o o o o o o o o o o o o o o                                                                           ",
"                          O o o O O o o o o o O O o O                                                                           "
};
