/* XPM */
static char *coin_f1[] = {
/* columns rows colors chars-per-pixel */
"17 20 2 1 ",
"  c None",
". c #FDF7ED",
/* pixels */
"      .....      ",
"      .....      ",
"     .......     ",
"   ...........   ",
"   ...........   ",
"   ...........   ",
"   ...........   ",
"   ...........   ",
"   ...........   ",
"   ...........   ",
"   ...........   ",
"   ...........   ",
"   ...........   ",
"   ...........   ",
"   ...........   ",
"   ...........   ",
"   ...........   ",
"     .......     ",
"      .....      ",
"      .....      "
};
