/* XPM */
static char *coin___[] = {
/* columns rows colors chars-per-pixel */
"19 20 125 2 ",
"   c None",
".  c #6D5623",
"X  c #755F24",
"o  c #A76D07",
"O  c #A1680C",
"+  c #AC7107",
"@  c #B17202",
"#  c #B37504",
"$  c #B77905",
"%  c #B97902",
"&  c #BC7E05",
"*  c #AB7816",
"=  c #AD7A1B",
"-  c #AF7D1C",
";  c #B67A10",
":  c #87722E",
">  c #816930",
",  c #AF8318",
"<  c #C28104",
"1  c #C98905",
"2  c #CC8B06",
"3  c #CE8E07",
"4  c #C5850B",
"5  c #D29208",
"6  c #D59509",
"7  c #D5960C",
"8  c #DB9B0B",
"9  c #DB9C0B",
"0  c #D89A0D",
"q  c #C59515",
"w  c #CF9913",
"e  c #C2971F",
"r  c #D09217",
"t  c #D49C11",
"y  c #D59817",
"u  c #D89D10",
"i  c #DAA213",
"p  c #DBA71C",
"a  c #D6A81C",
"s  c #DEAA1A",
"d  c #E0A10D",
"f  c #E0A514",
"g  c #E3A912",
"h  c #E0AA14",
"j  c #E9B619",
"k  c #E6BB1F",
"l  c #C0902D",
"z  c #D59A20",
"x  c #DCA824",
"c  c #DEAE25",
"v  c #D4B324",
"b  c #D7B624",
"n  c #D5B821",
"m  c #D7BC26",
"M  c #D6B329",
"N  c #DFB82F",
"B  c #D5AA3A",
"V  c #D5B430",
"C  c #D6B939",
"Z  c #E4B521",
"A  c #E2B426",
"S  c #E4B624",
"D  c #E3B839",
"F  c #E5BB3D",
"G  c #E3BD3F",
"H  c #E5BC3C",
"J  c #DEC929",
"K  c #D9CC38",
"L  c #EAC327",
"P  c #E8CA2A",
"I  c #F0C724",
"U  c #F2D52F",
"Y  c #E2C33A",
"T  c #E5C239",
"R  c #EBC539",
"E  c #E9C23C",
"W  c #E3C83B",
"Q  c #E1CD38",
"!  c #EAD736",
"~  c #F7DD37",
"^  c #EFE233",
"/  c #EDE034",
"(  c #F3E13D",
")  c #F1E93C",
"_  c #FDEA3B",
"`  c #FDEF3A",
"'  c #ABA542",
"]  c #9D9169",
"[  c #BCB867",
"{  c #E2BA46",
"}  c #DFC846",
"|  c #D8D44D",
" . c #D8D94C",
".. c #DFCC55",
"X. c #E4C844",
"o. c #EBCF49",
"O. c #EFD94B",
"+. c #EEE342",
"@. c #E9EB47",
"#. c #FEF842",
"$. c #F3F048",
"%. c #EBE25F",
"&. c #F9FD56",
"*. c #FAF45B",
"=. c #F5FA5F",
"-. c #EADB60",
";. c #E6D774",
":. c #E9DD72",
">. c #F2F461",
",. c #F1E778",
"<. c #FFFF74",
"1. c #FFFE7D",
"2. c #FAF88E",
"3. c #F4ED90",
"4. c #FEFF92",
"5. c #F5EFAC",
"6. c #FEFFA0",
"7. c #F3F2B6",
"8. c #FFFFB9",
"9. c #FBFAC3",
"0. c #FBFACC",
"q. c #F9F6D9",
"w. c LightYellow",
"e. c #FDFDE6",
"r. c #FFFFEE",
/* pixels */
"                                      ",
"                                      ",
"                  ..                  ",
"                X.5.,.                ",
"                Y q.2.+.              ",
"              T } e.6.$.              ",
"            N b :.r.4.&.) J n m       ",
"          M C ;.0.8.<.=.@.) / ^ O.    ",
"    W Q -.3.9.w.7.[ >. .' #.` U G     ",
"    o.( *.<.1.<.| ] %.K : P I x       ",
"      F A L ~ _ ! > V v . a f         ",
"        { c i j k X e h , u y         ",
"          D p 0 g q t d 8 6 z         ",
"          H S 7 8 9 8 5 3 2 r         ",
"          E Z 5 2 1 & # @ % 4         ",
"          R s < $ o * l = O ;         ",
"          R w + -                     ",
"            B                         ",
"                                      ",
"                                      "
};
