/* XPM */
static char *coin_anim_f0[] = {
/* columns rows colors chars-per-pixel */
"6 7 4 1 ",
"  c None",
". c #EE8E2E",
"X c #FACB3E",
"o c #FDF7ED",
/* pixels */
"  .o  ",
" .XXo ",
".XXXXo",
".XXXXo",
".XXXXo",
" .XXo ",
"  .o  "
};
