/* XPM */
static char *coin_f3[] = {
/* columns rows colors chars-per-pixel */
"17 20 55 1 ",
"  c None",
". c #ED8929",
"X c #EE8C2D",
"o c #EF902C",
"O c #F0992C",
"+ c #EF9430",
"@ c #EF9530",
"# c #F2A131",
"$ c #F2A332",
"% c #F3A735",
"& c #F3A835",
"* c #F5B337",
"= c #F7BD3A",
"- c #F7BE3B",
"; c #F8BF3B",
": c #FACC35",
"> c #FACC37",
", c #F8C03B",
"< c #FACA39",
"1 c #FACB3B",
"2 c #FACC38",
"3 c #FACB3C",
"4 c #FACA3D",
"5 c #FACB3D",
"6 c #FACB3E",
"7 c #FACC3C",
"8 c #F09C4D",
"9 c #F4AE47",
"0 c #F1A24B",
"q c #F7BE41",
"w c #FACC41",
"e c #F9C951",
"r c #FBD35F",
"t c #FBD461",
"y c #FBD463",
"u c #FAD366",
"i c #FBD565",
"p c #F7C671",
"a c #F6C388",
"s c #FBDD84",
"d c #F5C291",
"f c #FADD9C",
"g c #FCE4A2",
"h c #FCE4A3",
"j c #FCE5A4",
"k c #FCE8AF",
"l c #FCEAB7",
"z c #FBE5C5",
"x c #FDF0C9",
"c c #FBE8D6",
"v c #FDF2DA",
"b c #FDF2DB",
"n c #FDF6E4",
"m c #FDF9F3",
"M c #FDFBF9",
/* pixels */
"      .8dcM      ",
"      o0azn      ",
"     O#9pflx     ",
"   X@#*qeuskbm   ",
"   X@%-5<wijbm   ",
"   X@&,7:<rhbm   ",
"   X@&;5:5yhbm   ",
"   X@&-525yhbm   ",
"   X@&-525yhbm   ",
"   X@&-525yhbm   ",
"   X@&-525yhbm   ",
"   X@&-525yjbm   ",
"   X@&-525yhbm   ",
"   X@&;5:5yhbm   ",
"   X@&,7:<rhbm   ",
"   X@%-5<wijbm   ",
"   X@#*qeuskbm   ",
"     O#9pflx     ",
"      o0azn      ",
"      .8dcM      "
};
