/* XPM */
static char *coin_f0[] = {
/* columns rows colors chars-per-pixel */
"17 20 86 1 ",
"  c None",
". c #ED8929",
"X c #ED892D",
"o c #ED8B2D",
"O c #EF902C",
"+ c #EF922F",
"@ c #EF932F",
"# c #F0982B",
"$ c #F09A31",
"% c #F19B31",
"& c #F2A031",
"* c #F2A133",
"= c #F2A232",
"- c #F2A233",
"; c #F2A434",
": c #F4AB35",
"> c #F4AB36",
", c #F5B237",
"< c #F5B238",
"1 c #F6B739",
"2 c #F7BB3A",
"3 c #F7BC3A",
"4 c #F7BE3B",
"5 c #F8BF3B",
"6 c #FAC834",
"7 c #FAC937",
"8 c #FACC37",
"9 c #F9C53C",
"0 c #F9C53D",
"q c #FACA38",
"w c #FACA39",
"e c #FACA3B",
"r c #FACB3B",
"t c #FACA3C",
"y c #FACB3C",
"u c #FACA3D",
"i c #FAC93E",
"p c #FACA3E",
"a c #FACB3E",
"s c #FACD3D",
"d c #FACC3E",
"f c #FACD3F",
"g c #FACE3F",
"h c #FBCF3F",
"j c #F09C4D",
"k c #F4AE47",
"l c #F1A24B",
"z c #F7BE41",
"x c #FACB40",
"c c #FACC41",
"v c #FACC42",
"b c #FACC43",
"n c #FACF4F",
"m c #F9C951",
"M c #FACF50",
"N c #FBD461",
"B c #FBD463",
"V c #FAD366",
"C c #FBD669",
"Z c #FBD76C",
"A c #FBD76D",
"S c #F7C671",
"D c #FBD977",
"F c #F6C388",
"G c #FBDD85",
"H c #F5C291",
"J c #FADD9C",
"K c #FCE29A",
"L c #FCE29B",
"P c #FCE7AD",
"I c #FCE7AE",
"U c #FCE8B3",
"Y c #FCE9B3",
"T c #FCE9B5",
"R c #FCEAB8",
"E c #FBE5C5",
"W c #FCEEC8",
"Q c #FCEECA",
"! c #FDF1CE",
"~ c #FBE8D6",
"^ c #FDF4E0",
"/ c #FDF4E1",
"( c #FDF6E4",
") c #FDF9F5",
"_ c #FDFBF9",
"` c #FDFAFA",
/* pixels */
"      .jH~_      ",
"      @lFE(      ",
"     #*kSJR!     ",
"   X@*,zmVGY^_   ",
"   @%:5pqvBLQ^   ",
"  %*:19f8qnDLYQ  ",
"X@*<49pfppvMBGT^)",
"X@;2pffppppqvAI^)",
"X@;4fffpppq6pCI^)",
"X@;2pffpppp6vAI^)",
"X@;2pffpppp6vAI^)",
"X@;4fffpppq6pCI^)",
"X@;2pffppppqvAI^)",
"X@*<49pfppvMBGT^)",
"  %*:19f8qnDLYQ  ",
"   @%:5pqvBLQ^   ",
"   X@*,zmVGY^_   ",
"     #*kSJR!     ",
"      @lFE(      ",
"      .jH~_      "
};
