/* XPM */
static char *big_demon_run_anim_f1[] = {
/* columns rows colors chars-per-pixel */
"40 45 148 2 ",
"   c None",
".  c #1E1E1E",
"X  c #121A1A",
"o  c #19211F",
"O  c #29201E",
"+  c #311F29",
"@  c #3D1E29",
"#  c #172020",
"$  c #1D2121",
"%  c #222222",
"&  c #2B2325",
"*  c #2A2A29",
"=  c #322427",
"-  c #382725",
";  c #3A2825",
":  c #332328",
">  c #3E232C",
",  c #302F2F",
"<  c #2F302F",
"1  c #353534",
"2  c #393837",
"3  c #3B3E3D",
"4  c #431F2C",
"5  c #561F30",
"6  c #4F2924",
"7  c #44242D",
"8  c #4A252D",
"9  c #5E2E26",
"0  c #55232C",
"q  c #532D28",
"w  c #582F28",
"e  c #4D2432",
"r  c #482B35",
"t  c #532534",
"y  c #5D2537",
"u  c #642E25",
"i  c #6B2B2D",
"p  c #722C29",
"a  c #67322B",
"s  c #793428",
"d  c #7A382C",
"f  c #71352B",
"g  c #6B2B32",
"h  c #6C263C",
"j  c #73273E",
"k  c #7C2B3C",
"l  c #6E3130",
"z  c #723230",
"x  c #7E3630",
"c  c #37403F",
"v  c #7A2741",
"b  c #4B4C4A",
"n  c #5D5C59",
"m  c #6F4451",
"M  c #60615F",
"N  c #725760",
"B  c #606562",
"V  c #6E6E6B",
"C  c #70706D",
"Z  c #6F7471",
"A  c #767672",
"S  c #803A2C",
"D  c #923D2E",
"F  c #9B3D2D",
"G  c #812E36",
"H  c #8B3438",
"J  c #893135",
"K  c #913731",
"L  c #913934",
"P  c #A73C38",
"I  c #814439",
"U  c #AA4431",
"Y  c #B94533",
"T  c #BD413C",
"R  c #B44234",
"E  c #D8452F",
"W  c #C54935",
"Q  c #CD4A36",
"!  c #CD453E",
"~  c #C6443C",
"^  c #D94730",
"/  c #DB4E37",
"(  c #D44B3B",
")  c #DA4E38",
"_  c #DD5037",
"`  c #E24D35",
"'  c #E15137",
"]  c #E15038",
"[  c #E85038",
"{  c #812743",
"}  c #842844",
"|  c #8D2749",
" . c #8E2848",
".. c #952D43",
"X. c #9B274F",
"o. c #922849",
"O. c #9D294D",
"+. c #9D3440",
"@. c #9E2750",
"#. c #A22A4E",
"$. c #A82F4B",
"%. c #AF3940",
"&. c #AC3149",
"*. c #A83344",
"=. c #B53646",
"-. c #B43A41",
";. c #BC3B43",
":. c #A32950",
">. c #C23E42",
",. c #814F46",
"<. c #835148",
"1. c #835045",
"2. c #AD425B",
"3. c #87655D",
"4. c #8A665D",
"5. c #A64062",
"6. c #8C6A61",
"7. c #87746D",
"8. c #8D7A72",
"9. c #847579",
"0. c #B86E60",
"q. c #C44040",
"w. c #C0474C",
"e. c #D75742",
"r. c #DD5F4B",
"t. c #DE614D",
"y. c #E0644F",
"u. c #85857F",
"i. c #89817A",
"p. c #97847D",
"a. c #99857E",
"s. c #8C8681",
"d. c #8C908B",
"f. c #94938D",
"g. c #999690",
"h. c #AEABA4",
"j. c #B1ADA7",
"k. c #E69789",
"l. c #F0A897",
"z. c #C7C4BD",
"x. c #CAC6BE",
"c. c #EDCCC5",
"v. c #F0CEC8",
"b. c #E9E4DB",
"n. c #FDE9DD",
"m. c #FFEDE0",
"M. c #F4E6E3",
"N. c white",
/* pixels */
"                                                                                ",
"                                                                                ",
"                                                                                ",
"                                                                                ",
"                                          %                                     ",
"                                    %   %           %                           ",
"                                  % %   %     %   %                             ",
"                      %       % % $ # # $ $ # # # $                             ",
"                    % % % % % % % ; w q 7 4 8 w q 7   $ %                       ",
"                      % & & % & % d ) ( 2.5.w./ ( 2.r % & %                     ",
"                % % % $ y j : { > d ` r.v.M.k.^ t.c.n 5 j % %                   ",
"              % % & h : z ~ P O.7 d / t.m.N.l.E y.n.B p ;.j & %                 ",
"            % % % : o.H U ' ) ;.7 d [ e.a.d.0.` e.p.c s ) %.= $ %               ",
"          % % % % & h -.! ! ) / g l U D O X 9 U D O + L ] W - $ %               ",
"          %       % : { #.=.) ) =.h = = = = = : = : { >.] W - $                 ",
"                % & { X.=.( ) ) ( -.| o. .o.o. .o.o.~ ) ) W -                   ",
"                % % 7  .k S Q a Y K g T 0 P J g P 0 R F 6 q &                   ",
"              % % % $ e > - f & 9 6.8.I i.1.4.8.I i.,.4.Z $ %                   ",
"            % % % % % $ % % $ % . A f.3 b.M V f.3 b.M V g.% %                   ",
"          % %         % % % % % % % % 2 x.n . % 2 x.n . % %                     ",
"                      % %   % % % % % % 2 * % % % 2 * % %                       ",
"                              % % % % % . % % % % .   % %                       ",
"                            % % % % % % % % % % % % %                           ",
"                      % %   % % % % % . % % % % % % . .                         ",
"            % % % %   % % % % % % % * 2 % % % % % % 1 , % %                     ",
"                  % % % % % % % % . n x.2 % % % % % j.s.. % % %                 ",
"                % % % % % $ % % g.V M b.3 f.C b h.1 x.f.b h.1 . %               ",
"            % % % % $ $ 7 e % t 9.4.,.i.I 8.3.<.s.I 7.N m u.< .                 ",
"          % % % % % 7 % g +.a *.i F Y u Q s F Y u Q s G ..@ %                   ",
"                  =  .e x ( ( ) ) ) ) ) ) ) ) ) ) ) ) / ! ..=                   ",
"                  =  .o.O.$.&.( ) ) ) ) ) ) ) ) ) ) ) ) ) T =                   ",
"                  % 7 } :.&.! ) / _ ! =.( _ ) ) ) / / ) ) W -                   ",
"                % & t  .#.$.;.;.;.;.=.#.=.;.! _ ) >.=.! ' W - $                 ",
"              % $ & o.#.O.O.O.O.O.:.#.#.#.@.=.! q.#.X.=.! T = $ %               ",
"          % % % % > o.#.O.#.#.O.o.o.o.o.o.o.o.o.#.O.O.#.O.} & %                 ",
"              # 7 o.O.O.O.O.O.O.t & = = = = & t O.O.O.#.{ : %                   ",
"                7 #.#.:.j 7 7 7 :             = t o.:.:.O.h & $                 ",
"                8 X.h y 8   o                   & y y y j O.h : $               ",
"              $ > h & #                           $ $ o > v v 7                 ",
"                % % %                                     % %                   ",
"                                                                                ",
"                                                                                ",
"                                                                                ",
"                                                                                ",
"                                                                                "
};
