/* XPM */
static char *big_demon_run_anim_f0[] = {
/* columns rows colors chars-per-pixel */
"40 45 137 2 ",
"   c None",
".  c #111919",
"X  c #1C1D1D",
"o  c #221D1C",
"O  c #18211F",
"+  c #1D2121",
"@  c #222222",
"#  c #2C2325",
"$  c #2B2B2B",
"%  c #352526",
"&  c #382725",
"*  c #382824",
"=  c #332328",
"-  c #3D222D",
";  c #2E302E",
":  c #2A3332",
">  c #393837",
",  c #3B3C3C",
"<  c #323433",
"1  c #441F2F",
"2  c #561E30",
"3  c #5A1D32",
"4  c #4D2A24",
"5  c #43232F",
"6  c #5F2E26",
"7  c #512D28",
"8  c #4F2532",
"9  c #5D2537",
"0  c #5C2438",
"q  c #4E3F3C",
"w  c #4D353D",
"e  c #55363F",
"r  c #503D3A",
"t  c #652E25",
"y  c #6C342A",
"u  c #73332D",
"i  c #79342B",
"p  c #7D392C",
"a  c #612132",
"s  c #6B2C31",
"d  c #632539",
"f  c #6E263D",
"g  c #72273E",
"h  c #792A3C",
"j  c #723230",
"k  c #654039",
"l  c #752640",
"z  c #7C2742",
"x  c #7C2E46",
"c  c #663142",
"v  c #434341",
"b  c #4F4E4C",
"n  c #535350",
"m  c #5D5B59",
"M  c #625657",
"N  c #675A56",
"B  c #6F5D58",
"V  c #705E59",
"C  c #5D615F",
"Z  c #60615F",
"A  c #636361",
"S  c #6E6E6B",
"D  c #73716D",
"F  c #6F7471",
"G  c #767672",
"H  c #80392D",
"J  c #9A3C2D",
"K  c #8C333A",
"L  c #A93F2F",
"P  c #A53E35",
"I  c #AC3E33",
"U  c #A13B39",
"Y  c #834437",
"T  c #804339",
"R  c #9F4537",
"E  c #AD4431",
"W  c #B34434",
"Q  c #BA4633",
"!  c #D8462F",
"~  c #C04633",
"^  c #C54935",
"/  c #CD4B36",
"(  c #C6443C",
")  c #CC453E",
"_  c #D54C37",
"`  c #DD4E37",
"'  c #D44A3A",
"]  c #DB4E38",
"[  c #D1513D",
"{  c #DF5038",
"}  c #E34E36",
"|  c #E04F39",
" . c #E25137",
".. c #E25038",
"X. c #E85039",
"o. c #812743",
"O. c #842844",
"+. c #8D2749",
"@. c #8E2848",
"#. c #932E42",
"$. c #97294B",
"%. c #9D294E",
"&. c #A42C4C",
"*. c #AB2E4C",
"=. c #A23244",
"-. c #AF3940",
";. c #AD3249",
":. c #B53746",
">. c #B63B40",
",. c #BC3C42",
"<. c #B43449",
"1. c #A22950",
"2. c #C13D43",
"3. c #814F46",
"4. c #A0574B",
"5. c #89665E",
"6. c #8B6961",
"7. c #8C7973",
"8. c #817F7A",
"9. c #C34040",
"0. c #CB4241",
"q. c #DC5241",
"w. c #CF5A5B",
"e. c #DE624D",
"r. c #C16275",
"t. c #8A817C",
"y. c #BC6681",
"u. c #94928D",
"i. c #999691",
"p. c #B2AAA4",
"a. c #EBA192",
"s. c #CAC5BD",
"d. c #F5DFD4",
"f. c #E9E4DB",
"g. c #F7E1D6",
"h. c #F8E1D7",
"j. c #FDFDF4",
/* pixels */
"                                                                                ",
"                                                                                ",
"                                                                                ",
"                                                                                ",
"                                                                                ",
"                                                                                ",
"                                                                                ",
"                                                                                ",
"                                          @                                     ",
"                                  @ @   @           @                           ",
"                                @ @ @   @     @   @                             ",
"                    @ @ @       @ + + + + + + + + +                             ",
"                      @ @ @ @ @ + 4 H i a 3 s p i a -                           ",
"                      @ @ @ @ @ + H X.q.r.y.w.} q.r.w X                         ",
"                    @ @ # # @ # @ p ` e.h.j.a.! e.d.A o # @                     ",
"          @ @ @ @ @ @ + 9 g = o.- p ` e.g.j.a.! e.d.C 2 g @ @                   ",
"            @ @ @ # f = u ( P %.- p X.[ V C 4.} [ B : u ,.g # @                 ",
"                + = $.K E  .` ,.h s p y o . 4 p y o 5 U ] -.% + @               ",
"                  # f ,.) ) ] ] 2.h - 5 5 5 5 - 5 5 #.0.{ ^ % + @               ",
"                @ @ = o.&.:.] ] ] ,.&.&.&.&.&.&.&.&.) ` ` ^ & +                 ",
"              @ @ # o.%.:.' ] ] ] _ ' ' ' ' ' ' ' ' _ ] ] ^ &                   ",
"            @ @ @ @ 5 +.h H / y Q J i / t Q J i / t Q J 4 7 #                   ",
"              @ @ @ + 8 - * u # 6 6.7.T t.3.5.7.T t.3.5.F + @                   ",
"                  @ @ + @ @ + @ X G u., f.Z S u., f.Z S i.@ @                   ",
"                      @ @ @ @ @ @ @ @ > s.m X @ > s.m X @ @                     ",
"                        @ @ @ @ @ @ @ @ > $ @ @ @ > $ @ @                       ",
"                @ @     @ @ @ @ @ @ @ X X @ @ @ @ X X X @ @                     ",
"              @ @ @ @ @ @ @ @ @ X X v 8.$ X X @ X @ D m X X @                   ",
"            @ @ @ @ @ @ @ @ @ @ n , A f., b v < m $ s.i.; m $ +                 ",
"              @ @ @ @ @ # # @ = p.t.N s.q p.t.N s.q p.t.M s.> X                 ",
"            @ @ @ @ @ + 9 g = O.e Y R r W k T R r W k c x > @                   ",
"          @ @ @   # f = u ( E ( I ~ / L _ W Q / L _ W W >.f #                   ",
"            @     = $.l K 2.2.] ..` ` ..] ` ` ` ..] ` ..' -.%                   ",
"                  # f %.1.&.:._ ` ` ' ) ] ` ] ] ] ] ] ] ` ^ & +                 ",
"                  @ = o.1.;.' ' ' ' 9.&.) ' _ ] ] ' ' _ ` ^ % +                 ",
"                @ # o.%.%.&.&.&.&.&.&.&.&.&.,.` ' ;.&.,.` ^ & +                 ",
"              @ + = $.1.%.%.%.%.&.1.&.&.1.1.*.<.<.&.%.&.<.=.% +                 ",
"            @ @   # 0 +.1.%.&.&.g 9 9 9 9 9 0 0 d %.1.1.+.0 #                   ",
"            @       + d +.&.%.z - O + + + + + + # f z z d +                     ",
"                      + d &.O.=                 @ @ @ @ @                       ",
"                      + d o.=                                                   ",
"                      @ = - @                                                   ",
"                        + +                                                     ",
"                                                                                ",
"                                                                                "
};
