/* XPM */
static char *big_demon_run_anim_f3[] = {
/* columns rows colors chars-per-pixel */
"40 45 153 2 ",
"   c None",
".  c #151817",
"X  c #1C1C1C",
"o  c #131717",
"O  c #19211F",
"+  c #29201E",
"@  c #151F20",
"#  c #1F1F20",
"$  c #311F29",
"%  c #1D2121",
"&  c #222222",
"*  c #2B2325",
"=  c #292929",
"-  c #322427",
";  c #382725",
":  c #332328",
">  c #3C232C",
",  c #3B2825",
"<  c #2E302E",
"1  c #30302F",
"2  c #333332",
"3  c #383837",
"4  c #3C3B3B",
"5  c #451C2B",
"6  c #42242E",
"7  c #4B272D",
"8  c #4B2A29",
"9  c #562F28",
"0  c #582F28",
"q  c #5E2E26",
"w  c #492430",
"e  c #552534",
"r  c #5E2537",
"t  c #5D2538",
"y  c #413E3D",
"u  c #4E3F3C",
"i  c #55363F",
"p  c #503D3A",
"a  c #672D2E",
"s  c #753227",
"d  c #70332D",
"f  c #7C372C",
"g  c #7C382C",
"h  c #602736",
"j  c #612538",
"k  c #6C263C",
"l  c #75253E",
"z  c #38413F",
"x  c #654039",
"c  c #772541",
"v  c #7E2743",
"b  c #7C2E46",
"n  c #663142",
"m  c #434341",
"M  c #4F4E4C",
"N  c #4B504F",
"B  c #584F50",
"V  c #585754",
"C  c #595855",
"Z  c #5C5B58",
"A  c #535350",
"S  c #625657",
"D  c #665A56",
"F  c #615E5B",
"G  c #735953",
"H  c #62625F",
"J  c #626461",
"K  c #716F6B",
"L  c #873628",
"P  c #8B3B2F",
"I  c #943C2D",
"U  c #873534",
"Y  c #913737",
"T  c #A93F2F",
"R  c #AC3D38",
"E  c #B33A3F",
"W  c #824238",
"Q  c #834437",
"!  c #9D4436",
"~  c #90493D",
"^  c #AD412F",
"/  c #AB4231",
"(  c #B34434",
")  c #BF4633",
"_  c #BE4538",
"`  c #D8462F",
"'  c #C24733",
"]  c #C64934",
"[  c #CC4A35",
"{  c #C2433C",
"}  c #CC443E",
"|  c #D54D36",
" . c #DD4D36",
".. c #D54B3A",
"X. c #DB4E38",
"o. c #D1473D",
"O. c #DF5037",
"+. c #DF5038",
"@. c #E44D36",
"#. c #E04F39",
"$. c #E15137",
"%. c #E15038",
"&. c #E85038",
"*. c #832843",
"=. c #8F2849",
"-. c #992C47",
";. c #9C274F",
":. c #922949",
">. c #9D294D",
",. c #962C47",
"<. c #A32B4D",
"1. c #A92E4C",
"2. c #A53640",
"3. c #AD3249",
"4. c #AB3A40",
"5. c #B53746",
"6. c #B43942",
"7. c #BF3C44",
"8. c #B33449",
"9. c #A32950",
"0. c #C23D43",
"q. c #C83D46",
"w. c #85534A",
"e. c #817E7A",
"r. c #B86E60",
"t. c #C34040",
"y. c #CF4440",
"u. c #D04540",
"i. c #D75742",
"p. c #DF5C48",
"a. c #DF624E",
"s. c #E0634E",
"d. c #8B817C",
"f. c #98857E",
"g. c #E1857C",
"h. c #898581",
"j. c #8C908B",
"k. c #999791",
"l. c #ACA7A1",
"z. c #AFABA4",
"x. c #B2AAA4",
"c. c #ECA494",
"v. c #E1ADAE",
"b. c #E3AFB0",
"n. c #CAC5BD",
"m. c #DED9D0",
"M. c #E5C1C7",
"N. c #E9E4DB",
"B. c #F6E0D5",
"V. c #F9E5D9",
"C. c #FDE9DD",
"Z. c #FFFFF6",
"A. c #FFFFFC",
/* pixels */
"                                                                                ",
"                                                                                ",
"                                                                                ",
"                                                                                ",
"                                                                                ",
"                                                                                ",
"                                                                                ",
"                                                                                ",
"                                                                                ",
"                                                                                ",
"                                        &                                       ",
"                                    &   &         &                             ",
"                                  & &   &         &                             ",
"                                & & %   %   % %   %                             ",
"                                & * ; ; - - ; ; ; -                             ",
"                    &           % d [ _ -.=.4.] _ ,.6                           ",
"                    & &         % g @.p.b.M.g. .p.v.B .                         ",
"                      & &       % f  .a.C.A.c.` a.V.J                           ",
"          & &         & & &     % f  .a.V.Z.c.` a.B.H     &                     ",
"          & & &     & & & & & & % g  .a.V.Z.c.` a.B.H o   & &                   ",
"          & & & & & & & & & & & % g  .a.V.Z.c.` a.B.J X & & &                   ",
"            & & & % & j *.t * k > f  .a.C.A.c.` s.V.J 5 v k * %                 ",
"              % : e & Y q.R U >.> f &.i.f.j.r.@.i.f.z a q.6.k : %               ",
"                w >.a ( $.O...5.h d / I + o q / I + $ Y $...5.7 % &             ",
"              % 6 ,.} ..........5.k * - - - - : - : *.0. ...| 0 % &             ",
"          & & & & 6 -.1.<.5.....| 6.=.:.:.:.:.:.:.:.{ ........0 % &             ",
"            & % > v >.0.} o... . ...y.} u.} y.u.} u... .%.%. .0 %               ",
"              % : k >.U f ! | P ] ^ I | L ] ^ I | L ' / s g g , %               ",
"                % * k > @ 8 I * f w.G ! D ~ w.G ! D ~ w.N % % &                 ",
"                  & & & & & & & X h.l.y m.F e.l.y m.F e.x.& &                   ",
"            &         & & & & & & 1 2 4 m.H = 2 4 m.J = 2 &                     ",
"            & & & &   & & & & & & & X & V 2 X X = C 2 X X &                     ",
"              & & & & & & & & & X X m e.= X X & X X K Z X X &                   ",
"              & & & & & & & & & A 4 J N.4 M m 2 Z = n.k.< Z = &                 ",
"          & & & & & & & * * & : x.d.D n.u x.d.D n.u x.d.S n.3 X                 ",
"            & & & & & & r l - *.i Q ! p ( x W ! p ( x n b 4 & & &               ",
"              % > k * g { { / { T ' [ ^ | ( ) [ ^ | ( ( E l c >                 ",
"                w >.k 2.0.7.0...%. . .%... . . .#... .%...0.7.7                 ",
"                > v >.<.>.<.5.| O. .| } .. ............. .O.X.0                 ",
"              & & > :.<.>.3.........t.1.} ..| ........| .. ...0                 ",
"          & & % 6 =.>.>.>.<.1.1.<.<.<.<.<.<.0. ...3.<.0.....| 0 @               ",
"            & & * e >.9.<.<.9.9.>.>.>.>.>.>.1.8.8.<.9.1.8.8.8.7 % &             ",
"              & & & e j r r r t =.9.>.>.>.9.*.t t r r t t t t > %               ",
"                & & % % % % % % j =.<.>.>.*.e O % % % % % % %                   ",
"                                % t <.>.>.6 %                                   "
};
