/* XPM */
static char *big_demon_run_anim_f2[] = {
/* columns rows colors chars-per-pixel */
"40 45 154 2 ",
"   c None",
".  c #1D1E1E",
"X  c #241C1F",
"o  c #19211F",
"O  c #24201F",
"+  c #271C23",
"@  c #3C1F29",
"#  c #1E2221",
"$  c #222222",
"%  c #2C2326",
"&  c #222829",
"*  c #292929",
"=  c #322327",
"-  c #382724",
";  c #342329",
":  c #3C232C",
">  c #302F2F",
",  c #2F302F",
"<  c #30302F",
"1  c #343433",
"2  c #393837",
"3  c #3C3C3B",
"4  c #343A3A",
"5  c #751F3D",
"6  c #4D2D26",
"7  c #43242E",
"8  c #4A292B",
"9  c #562F27",
"0  c #532E28",
"q  c #5A2C24",
"w  c #593029",
"e  c #4D2332",
"r  c #532433",
"t  c #5A2238",
"y  c #403E3D",
"u  c #4E3D39",
"i  c #642E25",
"p  c #68242F",
"a  c #6B2B2D",
"s  c #62312B",
"d  c #77362C",
"f  c #7A352A",
"g  c #7E392C",
"h  c #6D2B33",
"j  c #622538",
"k  c #6D283A",
"l  c #69273A",
"z  c #7C253B",
"x  c #7F2C3D",
"c  c #7E3630",
"v  c #772641",
"b  c #7C2742",
"n  c #7B2F46",
"m  c #76374A",
"M  c #4B4C4A",
"N  c #524247",
"B  c #4C504F",
"V  c #595855",
"C  c #595B59",
"Z  c #6F4451",
"A  c #724652",
"S  c #6C5359",
"D  c #635B5A",
"F  c #63625F",
"G  c #725760",
"H  c #606662",
"J  c #6E6E6B",
"K  c #70706D",
"L  c #82382C",
"P  c #993C2D",
"I  c #8E2F3F",
"U  c #812E36",
"Y  c #8C3137",
"T  c #9D3D33",
"R  c #963339",
"E  c #A83937",
"W  c #B73E3E",
"Q  c #804439",
"!  c #8A4439",
"~  c #944B3D",
"^  c #AA4332",
"/  c #A44231",
"(  c #B84432",
")  c #BE4538",
"_  c #D8452F",
"`  c #C64A35",
"'  c #CD4A36",
"]  c #CD453E",
"[  c #C54B38",
"{  c #DA4730",
"}  c #DC4E37",
"|  c #D44B3A",
" . c #DA4E38",
".. c #DD5037",
"X. c #E04C35",
"o. c #E04F38",
"O. c #E35037",
"+. c #882747",
"@. c #862845",
"#. c #8E274A",
"$. c #8E2848",
"%. c #812744",
"&. c #952D43",
"*. c #9B274F",
"=. c #912849",
"-. c #9D294D",
";. c #9B2E46",
":. c #9A3340",
">. c #9E2750",
",. c #A1294E",
"<. c #A92E4C",
"1. c #AC314A",
"2. c #A83344",
"3. c #B43646",
"4. c #B63B41",
"5. c #BC3B43",
"6. c #A02850",
"7. c #A92A51",
"8. c #C03E42",
"9. c #814F46",
"0. c #835148",
"q. c #89554A",
"w. c #87655D",
"e. c #89665D",
"r. c #87746D",
"t. c #817E7A",
"y. c #887776",
"u. c #C64041",
"i. c #DF5745",
"p. c #DC5F4B",
"a. c #DF634E",
"s. c #E0644F",
"d. c #D9706C",
"f. c #88807B",
"g. c #85857F",
"h. c #8B8681",
"j. c #95938D",
"k. c #999791",
"l. c #ABA7A1",
"z. c #AEABA4",
"x. c #B1ADA7",
"c. c #DF9687",
"v. c #D28791",
"b. c #D48993",
"n. c #EFA897",
"m. c #D293A4",
"M. c #C7C4BD",
"N. c #CAC6BE",
"B. c #DED9D0",
"V. c #E1CCC2",
"C. c #E6E5DC",
"Z. c #FCE9DD",
"A. c #FFECE0",
"S. c white",
/* pixels */
"                                                                                ",
"                                                                                ",
"                                                                                ",
"                                          $                                     ",
"                    $ $ $ $       $ $   $           $ $                         ",
"                      $ $ $ $ $ $ $ $ $ $ $ $ $ $ $   $ $                       ",
"            $ $ $ $ $ # # : v v ; s ^ T z 5 Y / T z 7 # # $                     ",
"              $ $ $ $ r : 8 5.,.7 g O.i.b.m.d.X.i.v.N @ e $ $                   ",
"                  $ $ %.x g | 3.7 d } a.Z.S.n._ a.Z.H p I $ $                   ",
"                    $ k 4.| | | 0 d X.p.V.C.c.{ p.V.C f ^ $ $                   ",
"                  $ $ % k <.1.| 0 d o.[ u 4 !  .[ u & L ^ $ $                   ",
"                  $ $ j #.1.]  .:.j 9 6 O . - w 6 $ t W ^ $                     ",
"              $ $ $ $ r +.;.L g 4.h + r X r @ + r X R E q $                     ",
"            $ $ $ $ $ # r j # # L q.S n D m A S n D ~ q.B $                     ",
"                    $ $ $ $ $ $ . h.l.y B.D t.l.y B.D t.z.$ $                   ",
"                      $ $ $ $ $ $ < 1 3 B.F * 1 3 B.F * 1 $                     ",
"                      $ $ $ $ $ $ $ . * V 1 . . * V 1 . .                       ",
"                      $ $ $ $ $ $ $ $ $ . $ $ $ $ . $ $ $                       ",
"                      $     $ $ $ $ $ $ $ $ $ $ $ $ $ $ $                       ",
"                      $ $   $   $ $ $ $ $ $ $ $ $ $ $ $ $                       ",
"                      $     $   $ $ $ $ $ $ $ $ $ $   $ $                       ",
"                            $     $ $ $ $ $ $ $   $                             ",
"                            $       $ $ $ $ $                                   ",
"                      $     $         $ $ $                                     ",
"                            $           $             $ $                       ",
"                      $     $         $ $ $       $   $ $                       ",
"            $         $     $     $ $ $ $ $ $ $ $ $     $                       ",
"            $ $       $ $ $ $ $ $ $ $ $ $ $ $ $ $ $ $ $ $                       ",
"              $ $ $   $ $ $ $ $ $ $ $ . $ $ $ $ $ $ . $ $                       ",
"                $ $ $ $ $ $ $ $ $ $ * 2 $ $ $ $ $ $ 1 > $ $                     ",
"                  $ $ $ $ $ $ $ $ . C N.2 $ $ $ $ $ x.h.. $ $ $                 ",
"          $ $     $ $ $ $ # $ $ k.J F C.3 j.K M z.1 M.j.M z.1 . $               ",
"            $ $ $ $ # # 7 e $ t y.e.9.f.Q y.w.0.h.Q r.G Z g., .                 ",
"              $ $ $ 7 $ h :.s 2.a P ( i ' f P ( i ' f U &.@ $                   ",
"                # = $.e c | |  . . . . . . . . . . . . .] &.=                   ",
"                  = $.=.-.<.1.|  . . . . . . . . . . . . .) -                   ",
"                  $ 7 @.6.1.]  .} ..] 3.| .. . . .} }  . .` - #                 ",
"            $   $ % t $.6.<.5.5.5.5.3.,.5.5.] .. .8.5.] O.` - # $               ",
"          $ $ $ # % =.,.-.-.>.6.,.>.,.,.,.>.3.] u.,.*.3.] ) - #                 ",
"            $ $ $ : =.,.,.-.=.=.=.=.=.=.=.=.=.=.=.-.-.,.-.@.=                   ",
"              # 7 $.-.-.,.b = = = = = = = = = % : =.,.,.b =                     ",
"              # % 7 7 7 7 7                       7 @.7.v $                     ",
"                #       o                           r @.v $                     ",
"                                                    o j b $                     ",
"                                                    # j b $                     "
};
